<?xml version="1.0" standalone="no"?>
<!DOCTYPE svg PUBLIC "-//W3C//DTD SVG 20010904//EN"
 "http://www.w3.org/TR/2001/REC-SVG-20010904/DTD/svg10.dtd">
<svg version="1.0" xmlns="http://www.w3.org/2000/svg"
 width="1020.000000pt" height="1020.000000pt" viewBox="0 0 1020.000000 1020.000000"
 preserveAspectRatio="xMidYMid meet">
<metadata>
Created by potrace 1.11, written by Peter Selinger 2001-2013
</metadata>
<g transform="translate(0.000000,1020.000000) scale(0.100000,-0.100000)"
fill="#000000" stroke="none">
<path d="M2592 8018 c2 -8 -5 -12 -17 -11 -19 1 -19 1 -3 -11 10 -7 15 -16 11
-19 -3 -4 -12 -2 -19 3 -6 6 -18 9 -25 8 -8 -2 -13 2 -12 7 1 6 -7 11 -17 11
-18 0 -21 -19 -5 -33 4 -4 5 -2 1 5 -4 6 -3 12 3 12 18 0 21 -17 6 -30 -17
-14 -17 -14 -34 15 -11 18 -11 18 -5 -5 6 -23 5 -24 -10 -11 -9 8 -16 10 -14
5 2 -5 -8 -20 -21 -33 -23 -23 -23 -25 -6 -38 11 -7 14 -13 9 -13 -6 0 -15 5
-22 12 -9 9 -16 7 -32 -7 -11 -10 -20 -13 -20 -7 0 7 5 12 10 12 16 0 7 24
-13 32 -19 8 -64 -27 -48 -37 5 -2 12 2 15 11 3 8 11 12 17 8 8 -5 9 -3 4 6
-5 9 -4 11 4 6 6 -4 9 -12 5 -17 -3 -5 -9 -7 -14 -4 -4 3 -10 0 -12 -7 -2 -6
-12 -12 -21 -14 -9 -1 -14 2 -11 8 4 6 -4 8 -17 6 -13 -2 -23 -9 -21 -16 1 -8
-2 -10 -9 -7 -6 4 -17 -2 -25 -14 -14 -20 -16 -20 -39 -5 -24 15 -25 34 -4 34
6 0 8 -4 5 -9 -7 -11 18 -33 27 -24 13 12 7 22 -10 17 -15 -5 -16 -4 -3 5 8 6
11 11 5 12 -52 8 -58 4 -45 -31 1 -3 2 -9 1 -13 -1 -5 3 -6 8 -3 5 4 13 1 17
-6 4 -7 4 -10 -1 -6 -4 4 -16 -2 -26 -14 -13 -14 -19 -16 -19 -7 0 11 -2 12
-9 1 -7 -11 -9 -11 -14 1 -4 11 0 15 14 12 12 -3 17 0 13 7 -5 7 -2 8 5 3 10
-6 11 -3 2 14 -7 11 -17 21 -24 20 -9 0 -9 -2 1 -6 6 -2 12 -9 12 -14 0 -14
-28 -11 -34 4 -3 6 -3 -3 0 -22 4 -26 2 -32 -9 -28 -8 3 -20 0 -27 -6 -10 -9
-11 -9 -6 1 4 6 2 12 -3 12 -6 0 -11 -5 -11 -11 0 -5 -5 -7 -10 -4 -6 4 -17 1
-25 -5 -8 -7 -20 -8 -27 -4 -16 11 -42 15 -33 6 4 -4 12 -7 17 -7 6 0 13 -6
16 -14 3 -8 0 -11 -6 -7 -6 3 -13 2 -17 -4 -4 -6 -10 -8 -15 -5 -4 3 -6 -4 -3
-15 3 -12 -2 -29 -12 -40 -9 -10 -14 -23 -11 -28 3 -5 -1 -9 -8 -9 -9 0 -12
11 -9 31 2 20 0 27 -7 20 -5 -5 -11 -22 -12 -36 -1 -15 -4 -25 -7 -23 -7 8
-33 -34 -27 -44 3 -4 -4 -8 -17 -7 -15 1 -21 -4 -19 -16 1 -9 -2 -19 -8 -23
-6 -3 -7 0 -4 9 3 9 1 16 -5 16 -6 0 -11 -4 -11 -10 0 -5 -6 -10 -12 -10 -7 0
3 13 22 29 53 45 80 73 80 85 0 6 -8 -1 -18 -16 -9 -16 -21 -28 -27 -28 -13
-1 -56 -39 -77 -69 -17 -25 -66 -43 -52 -19 5 7 3 8 -5 4 -7 -5 -10 -10 -7
-13 3 -3 1 -14 -4 -23 -7 -13 -6 -17 3 -16 6 0 14 -3 15 -9 2 -5 9 -17 15 -25
10 -13 10 -13 -5 -1 -10 7 -15 18 -11 25 4 6 0 5 -9 -2 -14 -11 -18 -10 -27 5
-6 11 -11 13 -11 5 0 -8 -5 -10 -12 -6 -10 5 -10 4 -1 -6 9 -9 9 -19 2 -34
-10 -21 -10 -21 8 -1 21 22 43 30 43 15 0 -6 -8 -10 -17 -10 -15 0 -16 -2 -3
-10 8 -5 11 -10 5 -11 -5 0 -19 -2 -29 -4 -11 -2 -28 1 -39 7 -15 7 -18 7 -12
-2 4 -7 2 -16 -5 -20 -8 -5 -8 -9 4 -13 9 -4 15 -3 13 1 -2 7 6 12 19 12 3 0
-8 -17 -23 -37 -22 -28 -24 -35 -10 -30 11 4 16 3 12 -4 -4 -6 -13 -8 -21 -5
-18 7 -44 -3 -44 -16 0 -7 5 -6 14 1 10 9 15 8 19 -2 6 -16 -31 -16 -41 0 -5
7 -12 5 -22 -5 -13 -14 -12 -15 2 -10 10 4 19 1 22 -9 4 -9 13 -13 22 -9 8 3
12 2 9 -3 -3 -6 -14 -9 -25 -8 -10 1 -17 4 -14 8 2 4 -7 9 -20 11 -18 4 -23 1
-18 -10 3 -10 1 -13 -6 -8 -8 5 -10 1 -5 -10 5 -13 3 -15 -8 -9 -12 7 -12 6
-1 -7 9 -11 10 -18 2 -23 -5 -3 -10 -15 -10 -25 0 -11 -10 -24 -22 -30 -22
-11 -22 -10 -4 4 11 9 15 16 9 16 -7 0 -14 -4 -17 -9 -3 -5 -16 -7 -29 -5 -21
4 -21 4 -1 -5 21 -9 25 -35 10 -59 -4 -6 -4 -18 1 -24 4 -7 -6 -5 -21 6 -16
10 -25 13 -22 7 4 -6 3 -11 -2 -11 -6 0 -13 -7 -16 -16 -4 -10 -2 -13 7 -7 19
12 36 12 44 1 4 -7 1 -8 -7 -3 -8 5 -11 3 -8 -6 3 -8 11 -13 17 -11 7 1 10 -2
6 -8 -5 -8 -11 -8 -19 -1 -7 6 -17 7 -21 3 -5 -4 -5 -1 -1 5 5 9 2 11 -10 6
-14 -5 -13 -8 6 -18 20 -10 20 -13 5 -18 -24 -10 -32 -8 -15 3 9 6 10 10 3 10
-21 0 -25 -21 -7 -36 18 -14 18 -14 0 -7 -15 5 -17 3 -11 -8 5 -9 2 -9 -10 2
-14 13 -15 21 -6 38 10 17 9 20 -4 15 -8 -3 -13 -10 -10 -14 3 -5 -2 -15 -10
-24 -13 -13 -13 -15 4 -21 11 -3 18 -13 17 -22 -3 -19 -26 -31 -26 -13 0 6 5
8 12 4 7 -4 8 -3 4 4 -4 7 -17 17 -29 22 -19 10 -20 9 -6 -2 17 -14 15 -38 -4
-34 -7 1 -9 1 -4 -1 4 -3 5 -9 1 -14 -3 -5 -1 -9 5 -9 5 0 11 4 13 10 2 5 8
-2 15 -15 8 -18 8 -27 1 -32 -6 -3 -8 -1 -5 4 4 6 0 14 -9 17 -8 3 -13 2 -10
-3 3 -5 -1 -12 -10 -15 -12 -5 -15 -2 -10 9 3 9 2 13 -3 10 -6 -3 -10 -13 -9
-23 0 -9 -3 -27 -6 -40 -3 -15 0 -25 11 -29 14 -5 14 -7 0 -15 -9 -5 -14 -15
-11 -23 4 -9 -1 -13 -14 -12 -12 0 -18 5 -16 9 3 5 11 5 17 2 7 -4 7 -1 -1 7
-11 12 -15 11 -23 -3 -5 -10 -9 -21 -9 -24 1 -4 -4 -10 -11 -15 -18 -11 -19
-49 -1 -42 8 3 18 0 23 -8 14 -22 10 -35 -4 -14 -8 10 -17 14 -20 9 -7 -12 3
-29 23 -37 10 -4 8 -6 -7 -6 -12 -1 -23 2 -26 7 -2 4 -2 1 -1 -6 2 -7 -3 -15
-12 -19 -8 -3 -13 -12 -10 -20 3 -7 -1 -16 -9 -20 -14 -5 -13 -7 1 -18 12 -8
14 -14 6 -19 -7 -4 -12 -2 -12 3 0 12 -35 9 -47 -4 -5 -4 -2 -5 5 -1 7 4 12 2
12 -6 0 -9 3 -9 10 2 8 13 11 11 16 -7 4 -13 10 -20 15 -17 5 3 7 9 4 14 -3 5
-1 11 4 15 5 3 8 14 6 25 -2 12 0 18 6 15 5 -4 7 -10 4 -15 -3 -5 -1 -12 5
-15 8 -5 8 -11 0 -20 -7 -8 -8 -20 -4 -26 4 -8 3 -9 -4 -5 -7 4 -17 4 -23 0
-8 -4 -7 -9 2 -15 10 -6 10 -9 2 -9 -6 0 -15 5 -18 10 -4 6 -11 7 -17 4 -7 -4
-8 -2 -4 5 4 6 13 8 19 5 9 -5 9 -4 1 6 -10 9 -17 7 -35 -11 -12 -12 -16 -20
-8 -17 8 3 25 0 38 -7 19 -10 21 -13 7 -18 -9 -4 -13 -13 -10 -22 3 -8 1 -15
-4 -15 -6 0 -9 -9 -7 -20 2 -11 1 -19 -3 -17 -4 2 -15 -5 -25 -16 -19 -19 -18
-19 3 -12 19 6 20 5 8 -14 -7 -12 -17 -21 -22 -21 -6 0 -1 -7 10 -15 18 -14
18 -14 -4 -10 -20 4 -22 2 -12 -10 15 -17 24 -20 14 -4 -4 7 2 7 17 -1 34 -18
38 -24 11 -15 -22 6 -23 5 -12 -17 7 -12 9 -20 5 -16 -5 4 -13 3 -20 -2 -8 -7
-12 -5 -12 5 0 8 4 12 9 9 4 -3 8 -1 8 3 0 5 -9 14 -19 20 -16 10 -22 9 -33
-5 -12 -15 -11 -16 4 -4 10 8 19 9 22 3 4 -5 2 -12 -4 -16 -6 -4 -5 -13 2 -25
9 -14 15 -16 25 -8 8 6 16 8 20 4 3 -3 1 -6 -5 -6 -6 0 -9 -8 -6 -17 5 -15 4
-16 -5 -3 -10 14 -16 7 -12 -13 1 -5 -3 -6 -9 -2 -6 3 -7 12 -3 18 5 8 2 8 -9
0 -8 -7 -19 -9 -23 -5 -5 4 -5 2 -1 -5 3 -6 2 -14 -4 -18 -5 -3 -10 -11 -10
-17 0 -5 9 0 20 13 11 14 19 18 20 11 0 -7 -11 -24 -24 -37 -20 -20 -21 -25
-8 -30 8 -3 20 -1 26 5 8 8 6 9 -8 4 -16 -6 -15 -3 5 19 23 27 36 36 24 17 -3
-5 -1 -10 4 -10 6 0 11 -5 11 -11 0 -8 -6 -7 -17 2 -14 12 -16 12 -11 -1 3 -8
15 -15 26 -14 25 1 22 -4 -10 -20 -12 -6 -23 -17 -26 -24 -3 -11 -1 -11 17 -1
16 10 23 11 32 2 9 -9 7 -11 -8 -7 -12 3 -24 0 -29 -7 -5 -9 -2 -11 8 -6 10 3
15 1 14 -8 -1 -8 -4 -16 -7 -17 -2 -2 -3 -1 -2 1 2 2 -5 10 -15 17 -12 9 -21
9 -29 2 -9 -7 -13 -7 -13 1 0 21 -16 11 -17 -11 0 -13 1 -17 4 -10 3 6 9 9 14
6 6 -3 5 -11 -2 -20 -9 -12 -15 -12 -27 -2 -13 11 -13 8 1 -12 19 -27 23 -55
7 -45 -5 3 -10 1 -10 -4 0 -6 4 -11 9 -11 11 0 9 -19 -3 -39 -6 -10 -5 -12 2
-7 7 4 12 3 12 -3 0 -5 -7 -12 -15 -14 -11 -3 -10 -4 2 -3 10 1 17 9 17 19 -2
23 3 21 17 -4 9 -17 8 -20 -2 -14 -9 6 -11 3 -6 -9 4 -10 -1 -24 -14 -37 -11
-11 -17 -24 -14 -29 4 -6 -1 -13 -9 -16 -13 -5 -12 -10 9 -26 26 -20 33 -38
14 -38 -5 0 -7 6 -3 13 5 9 3 9 -7 -1 -12 -11 -12 -14 1 -22 8 -5 18 -6 24 -3
17 11 -7 -21 -27 -36 -10 -7 -16 -20 -12 -28 3 -9 0 -22 -6 -29 -17 -21 -1
-17 23 6 12 11 24 17 27 14 3 -3 -2 -10 -12 -15 -21 -12 -23 -31 -2 -23 23 9
18 -4 -6 -17 -15 -7 -19 -8 -15 0 5 7 1 8 -11 4 -15 -6 -14 -9 10 -17 15 -5
27 -14 27 -18 0 -5 -9 -4 -19 2 -14 7 -22 7 -27 -2 -4 -6 -3 -8 3 -5 6 4 19
-3 29 -15 11 -12 14 -18 7 -15 -12 7 -36 -47 -26 -57 3 -3 0 -13 -8 -23 -9
-11 -10 -14 -2 -9 12 6 19 -18 14 -47 -1 -5 3 -6 9 -2 6 3 7 11 4 17 -5 7 -2
8 5 3 9 -5 9 -11 3 -17 -6 -6 -8 -16 -5 -24 2 -7 -5 -19 -16 -26 -23 -14 -28
-29 -8 -26 7 2 11 -5 9 -17 -3 -16 -1 -17 9 -8 9 9 9 16 1 25 -8 11 -6 17 11
28 20 12 21 12 9 -3 -8 -9 -11 -21 -7 -27 3 -5 -7 -27 -22 -47 -15 -20 -23
-34 -17 -30 6 3 20 -3 30 -15 11 -12 14 -19 8 -15 -19 11 -36 -40 -22 -66 6
-12 10 -24 9 -25 -2 -2 -1 -5 1 -8 2 -2 4 8 4 21 0 14 -4 25 -8 25 -4 0 -8 5
-8 11 0 8 4 9 13 0 8 -6 18 -7 22 -3 5 4 4 0 -1 -8 -8 -14 -10 -23 -13 -71 0
-12 -6 -17 -12 -14 -6 4 -5 -2 3 -14 14 -23 38 -36 38 -20 0 5 -7 12 -15 15
-11 5 -13 10 -5 19 5 6 7 15 3 18 -3 4 -4 7 -1 7 3 0 12 -8 19 -17 12 -14 12
-16 0 -9 -9 6 -12 5 -9 -5 3 -8 11 -13 17 -11 9 2 9 -3 1 -18 -10 -19 -6 -24
13 -21 5 1 6 -3 2 -9 -5 -8 -12 -7 -23 2 -13 11 -15 11 -10 -3 4 -9 1 -16 -7
-16 -7 0 -11 5 -9 11 6 16 -13 42 -23 32 -4 -5 -2 -11 5 -13 6 -3 12 -9 12
-14 0 -6 -6 -7 -13 -3 -9 6 -9 4 0 -7 15 -16 17 -33 3 -24 -5 3 -10 1 -10 -4
0 -6 5 -11 11 -11 6 0 9 -7 5 -15 -8 -22 2 -18 15 6 9 17 8 20 -3 14 -7 -5
-10 -4 -5 0 11 13 45 16 52 5 3 -6 -1 -7 -10 -4 -11 5 -14 2 -9 -12 5 -16 4
-17 -6 -4 -10 13 -11 11 -7 -7 3 -13 0 -26 -5 -30 -6 -3 -8 -1 -5 5 5 6 0 8
-13 5 -11 -3 -22 -9 -25 -13 -3 -5 3 -6 13 -3 13 3 19 -1 19 -12 0 -9 -6 -14
-12 -11 -6 2 -12 -2 -12 -10 0 -7 3 -11 7 -9 3 2 11 -5 18 -16 12 -19 5 -26
-14 -11 -5 4 4 -5 21 -20 16 -14 27 -29 24 -32 -3 -4 -12 0 -19 9 -7 8 -17 15
-23 15 -6 0 -1 -7 11 -16 12 -8 20 -20 16 -25 -7 -13 15 -41 27 -33 5 3 7 10
3 15 -3 5 -10 7 -15 4 -5 -4 -9 -2 -9 4 0 5 5 13 11 16 6 4 8 13 5 20 -6 18
20 40 29 25 3 -6 11 -7 17 -4 7 4 8 2 4 -5 -6 -9 -11 -9 -22 0 -8 6 -14 10
-15 8 -8 -44 -7 -61 4 -50 6 6 15 11 21 11 5 0 1 -7 -10 -16 -19 -15 -19 -16
1 -10 17 5 18 4 5 -6 -18 -15 -25 -48 -11 -48 5 0 11 8 13 18 3 14 5 13 10 -5
4 -14 2 -22 -6 -20 -6 1 -10 -6 -8 -15 2 -10 -2 -18 -7 -18 -15 0 -9 -44 9
-57 8 -7 11 -13 6 -13 -5 0 -3 -7 4 -15 10 -13 11 -18 1 -28 -7 -7 -12 -7 -11
-2 5 22 -1 35 -14 35 -20 0 -27 -13 -14 -30 8 -12 9 -11 4 3 -4 12 -2 17 6 15
18 -6 17 -29 -1 -53 -15 -19 -15 -19 3 -5 18 14 19 13 13 -2 -3 -10 -2 -20 3
-23 7 -4 6 -13 0 -25 -8 -16 -8 -18 5 -14 8 3 13 10 10 14 -3 5 0 12 6 16 8 4
9 3 5 -4 -4 -7 -1 -12 6 -12 10 0 10 -2 0 -9 -19 -11 -17 -24 4 -31 10 -4 18
-16 19 -28 1 -11 -2 -19 -7 -16 -4 3 -18 2 -29 -1 -16 -5 -18 -9 -9 -15 7 -5
19 -6 27 -3 18 7 6 -27 -15 -45 -13 -10 -11 -11 16 -8 17 2 39 -2 48 -9 16
-11 16 -12 0 -18 -9 -4 -14 -3 -11 2 3 5 1 12 -5 16 -5 3 -10 -3 -10 -14 0
-12 -4 -21 -10 -21 -5 0 -10 -5 -10 -11 0 -7 4 -8 13 -2 27 20 66 32 72 22 4
-5 3 -9 -2 -8 -32 6 -40 -34 -11 -53 10 -6 10 -8 -1 -8 -9 0 -10 -4 -3 -12 5
-7 8 -23 6 -35 -3 -18 0 -21 14 -16 9 3 14 3 10 -1 -6 -7 -28 -13 -53 -15 -5
-1 1 -8 13 -17 19 -13 21 -19 11 -30 -9 -11 -9 -18 -1 -26 19 -19 14 -32 -5
-17 -15 11 -14 9 1 -9 11 -12 22 -20 25 -17 11 12 8 34 -5 39 -8 3 -14 10 -14
16 0 6 5 8 12 4 7 -4 8 -3 4 4 -4 7 -2 12 4 12 7 0 10 -7 7 -15 -4 -8 -2 -17
4 -20 5 -4 7 -11 4 -16 -6 -8 9 -13 28 -10 5 1 6 -3 3 -8 -4 -5 -1 -11 6 -13
8 -3 6 -7 -5 -11 -9 -3 -16 -3 -14 1 1 4 -2 8 -7 10 -6 1 -11 -4 -12 -13 -1
-8 1 -13 6 -10 4 3 13 -2 20 -10 11 -13 10 -15 -6 -12 -11 1 -24 6 -30 9 -6 4
-11 1 -11 -6 0 -7 7 -13 16 -13 40 0 44 -2 32 -17 -19 -23 22 -42 43 -20 9 8
16 11 16 6 0 -5 -7 -15 -15 -22 -8 -7 -12 -16 -9 -21 7 -13 -10 -11 -23 2 -8
8 -13 8 -18 0 -3 -6 -3 -11 2 -10 18 4 41 -13 36 -27 -3 -8 0 -14 7 -14 6 0 9
-4 6 -9 -3 -4 3 -19 14 -31 20 -23 23 -21 21 15 0 14 1 15 6 5 3 -8 14 -23 25
-34 18 -20 22 -30 19 -53 -1 -7 3 -13 9 -13 5 0 10 8 10 18 0 14 2 15 10 2 14
-23 -20 -38 -36 -15 -7 9 -10 23 -8 29 3 7 -2 18 -9 25 -12 10 -14 7 -13 -18
0 -16 4 -27 7 -25 12 7 20 -28 9 -41 -7 -8 -5 -12 5 -12 8 0 12 4 10 7 -10 15
45 7 57 -9 12 -14 11 -14 -5 -2 -14 11 -20 11 -32 1 -17 -14 -20 -40 -5 -40 5
0 6 7 3 17 -5 12 -3 14 7 8 9 -6 11 -4 5 6 -5 8 -4 11 0 6 9 -7 15 -36 16 -70
0 -9 4 -15 10 -12 5 4 9 2 9 -3 0 -15 28 -23 36 -10 4 6 3 8 -3 5 -12 -7 -30
10 -35 33 -2 8 -6 17 -10 20 -4 3 2 11 13 19 17 10 20 10 13 -1 -15 -24 -12
-36 12 -49 15 -8 23 -18 19 -28 -3 -8 -1 -17 4 -20 5 -4 11 -13 13 -20 5 -22
50 -71 59 -65 5 3 9 0 9 -5 0 -14 -13 -14 -28 1 -13 13 -16 0 -4 -18 8 -13 42
-14 42 -2 0 5 5 6 11 2 8 -4 7 -9 -2 -15 -11 -8 -9 -13 10 -29 13 -11 18 -20
12 -20 -7 0 -10 -4 -7 -9 4 -5 -3 -7 -14 -4 -16 4 -18 8 -9 19 11 13 5 18 -15
15 -5 -1 -6 5 -3 13 4 10 1 13 -9 9 -13 -5 -13 -7 0 -22 14 -15 16 -20 16 -39
0 -12 44 -10 53 2 4 6 5 -3 2 -21 -3 -17 -1 -35 5 -38 6 -4 7 1 3 12 -6 16 -5
16 10 5 8 -8 15 -19 13 -25 -1 -7 -1 -9 1 -5 6 9 33 -2 33 -14 0 -5 -5 -6 -12
-2 -7 4 -8 3 -4 -5 4 -7 17 -9 29 -6 17 5 19 4 7 -4 -10 -7 -11 -11 -2 -11 6
0 12 -5 12 -11 0 -5 -4 -7 -10 -4 -5 3 -10 1 -10 -4 0 -6 6 -11 13 -11 7 0 8
-3 2 -8 -10 -7 -19 -32 -11 -32 2 0 11 12 21 26 9 15 12 23 6 20 -7 -5 -9 -1
-5 9 4 9 9 14 12 11 9 -10 8 -51 -3 -59 -6 -5 -2 -6 8 -3 10 3 25 6 34 6 10 0
13 6 8 18 -5 13 -3 14 6 5 13 -13 4 -33 -17 -33 -11 0 -10 -5 5 -22 11 -11 18
-25 15 -29 -3 -5 3 -6 13 -2 16 6 16 5 4 -10 -9 -11 -10 -17 -2 -17 6 0 11 4
11 10 0 5 7 7 15 4 11 -5 12 -11 4 -27 -9 -20 -9 -20 4 -5 12 16 15 16 42 -2
15 -10 33 -17 39 -16 6 2 8 1 3 -1 -4 -3 -4 -9 -1 -14 3 -6 12 -5 22 3 15 12
16 11 3 -4 -15 -21 -2 -24 19 -6 12 11 12 10 2 -3 -6 -9 -8 -19 -4 -24 4 -4
-3 -3 -15 4 -12 6 -25 16 -28 21 -4 6 -11 7 -17 4 -7 -5 -8 -2 -3 6 5 8 4 11
-3 6 -5 -3 -12 -2 -14 3 -5 14 -23 18 -26 6 -1 -5 4 -10 11 -10 6 0 11 -8 11
-17 -1 -14 2 -15 17 -8 10 6 20 6 23 1 4 -5 1 -12 -4 -14 -6 -3 -5 -4 2 -3 20
5 49 -14 42 -26 -5 -7 -2 -8 6 -3 9 5 10 2 5 -14 -3 -11 -2 -21 3 -21 17 0 21
13 11 33 -8 14 -8 18 0 13 6 -4 11 -2 11 4 0 7 -7 10 -14 7 -10 -4 -13 -1 -9
9 8 22 35 -4 27 -28 -4 -12 -1 -18 8 -16 8 2 12 -5 11 -20 -2 -13 1 -21 7 -17
6 3 10 -1 10 -9 0 -8 5 -18 12 -22 7 -4 8 -3 4 4 -9 14 -18 88 -10 80 5 -6 12
-31 13 -54 1 -7 8 -15 17 -18 14 -5 15 -4 5 8 -9 10 -9 16 -1 21 6 4 14 4 17
1 4 -3 1 -6 -6 -6 -7 0 -9 -5 -6 -10 4 -6 11 -7 17 -4 7 4 8 2 4 -4 -4 -7 -3
-12 3 -12 5 0 12 5 14 10 3 6 4 5 3 -2 -1 -7 -13 -14 -25 -14 -12 -1 -28 -7
-34 -14 -9 -10 -9 -11 1 -5 8 4 21 0 31 -9 15 -14 20 -14 45 -1 22 12 26 12
17 2 -11 -14 -5 -27 11 -27 5 0 6 6 2 13 -6 9 -5 9 8 0 8 -7 18 -10 21 -6 4 3
9 -2 13 -11 3 -9 10 -14 14 -11 4 3 13 -2 20 -10 7 -8 16 -12 21 -10 8 6 6
-16 -6 -50 -7 -18 -7 -19 6 -3 13 16 50 20 49 5 0 -4 0 -10 0 -13 0 -4 -6 -1
-14 5 -10 8 -16 9 -21 1 -3 -5 -4 -11 -1 -11 3 -1 9 -2 14 -3 4 -1 13 -5 21
-10 10 -7 12 -6 6 4 -6 9 -2 10 15 5 17 -5 21 -4 15 5 -6 9 -4 11 5 5 10 -6
12 -3 7 11 -7 18 -6 18 9 -1 8 -11 20 -19 25 -17 6 1 8 -2 4 -8 -5 -8 -11 -8
-20 0 -9 8 -14 7 -18 -3 -8 -22 37 -18 56 6 10 13 15 15 12 6 -4 -9 1 -24 11
-33 15 -16 15 -18 -5 -40 -16 -17 -18 -23 -7 -23 8 0 12 5 9 10 -4 7 1 7 13 2
30 -12 58 -13 66 -1 5 7 8 6 8 -4 0 -13 1 -13 10 0 8 12 10 12 10 1 0 -11 3
-11 15 -1 10 9 15 9 15 1 0 -6 -4 -11 -10 -11 -5 0 -10 -5 -10 -11 0 -5 4 -7
10 -4 5 3 7 0 4 -8 -9 -24 13 -29 41 -11 24 16 27 16 45 -1 11 -10 17 -22 14
-26 -3 -5 1 -6 9 -3 8 3 17 -2 20 -10 4 -9 13 -13 22 -10 8 3 15 2 15 -3 0
-13 33 -12 43 1 6 7 7 6 4 -4 -4 -15 -33 -21 -52 -11 -18 9 -35 10 -35 0 0 -5
5 -10 10 -10 13 -2 29 -6 33 -9 6 -5 46 -6 43 -1 -1 3 5 14 16 24 21 19 23 15
7 -15 -8 -15 -8 -19 0 -14 6 4 11 2 11 -4 0 -6 5 -8 11 -4 8 5 8 9 -1 14 -9 5
-9 9 -1 14 6 4 11 3 11 -2 0 -5 6 -9 13 -10 6 -1 24 -3 39 -5 30 -3 68 -33 68
-54 0 -8 -5 -11 -10 -8 -6 4 -7 11 -4 17 4 6 2 8 -4 4 -6 -3 -13 -2 -17 4 -4
6 -11 7 -17 4 -7 -5 -8 -2 -3 6 6 9 4 11 -5 5 -8 -5 -11 -4 -7 2 3 5 0 10 -7
10 -7 0 -13 -6 -13 -13 0 -7 4 -11 8 -9 3 3 12 -2 18 -9 10 -11 8 -17 -6 -25
-10 -6 -13 -11 -6 -11 6 0 18 6 26 14 16 16 39 3 31 -19 -3 -6 2 -12 10 -12 8
0 12 5 10 12 -3 6 5 11 16 12 12 1 18 -2 14 -9 -4 -7 -2 -8 4 -4 7 4 12 3 12
-2 0 -5 11 -9 25 -9 14 0 25 3 25 8 0 4 -9 6 -20 4 -13 -3 -18 0 -14 7 4 7 3
8 -4 4 -7 -4 -12 -2 -12 3 0 6 7 11 15 11 8 0 15 -4 15 -10 0 -5 6 -9 13 -7 6
1 12 -7 11 -19 0 -11 5 -21 11 -21 7 0 10 10 7 24 -2 13 1 23 7 23 6 0 8 -8 4
-18 -6 -15 -5 -15 11 -3 14 12 19 12 29 1 8 -8 8 -11 1 -7 -7 4 -17 1 -23 -7
-9 -11 -7 -13 11 -12 14 1 22 -4 20 -12 -1 -8 2 -11 8 -7 8 5 7 11 -1 21 -9
11 -8 14 2 14 10 0 10 3 1 12 -7 7 -12 17 -12 23 0 5 4 4 9 -4 5 -8 17 -16 26
-17 9 -1 25 -10 34 -18 16 -15 19 -15 31 -1 7 8 18 15 24 15 6 0 3 -5 -7 -11
-9 -6 -14 -15 -11 -21 4 -7 2 -8 -4 -4 -7 4 -12 3 -12 -1 0 -14 38 -33 54 -27
8 3 12 13 9 22 -3 10 1 8 11 -6 10 -12 18 -31 19 -42 1 -22 13 -26 20 -7 4 9
8 9 16 -3 5 -8 7 -18 4 -24 -3 -5 -1 -6 5 -2 19 11 -5 49 -26 41 -9 -3 -13 -3
-10 1 4 4 3 15 -2 25 -7 12 -6 20 2 25 6 4 8 3 4 -4 -3 -6 1 -18 10 -26 16
-17 39 -22 30 -8 -3 5 1 9 8 9 7 0 13 -6 13 -13 0 -7 -4 -11 -9 -8 -4 3 -8 0
-8 -5 0 -10 5 -12 28 -11 4 1 6 11 5 23 -1 15 0 16 3 5 7 -23 24 -23 25 0 0
12 3 11 10 -6 5 -13 7 -28 4 -32 -3 -5 0 -12 6 -16 7 -4 9 -3 5 4 -3 6 -2 14
4 17 8 5 8 11 1 19 -8 9 -7 13 3 13 8 0 13 -8 11 -19 -2 -10 1 -18 7 -18 6 0
5 -7 -3 -17 -13 -15 -12 -15 13 1 20 13 27 14 31 4 3 -8 6 -6 6 5 1 14 -4 17
-21 12 -18 -5 -20 -4 -8 4 10 7 11 11 3 11 -7 0 -13 5 -13 11 0 8 5 8 15 -1
12 -10 18 -10 30 0 9 8 15 8 15 2 0 -6 -5 -12 -11 -14 -7 -2 -4 -10 7 -18 10
-8 15 -10 11 -3 -4 6 -3 14 3 18 5 3 10 -3 10 -14 0 -24 18 -28 26 -6 4 8 11
12 16 9 6 -4 8 2 4 17 -6 21 -6 22 4 6 10 -15 8 -23 -11 -43 -12 -13 -18 -24
-12 -24 6 0 13 7 17 15 3 8 10 15 16 15 6 0 9 -4 6 -9 -7 -11 20 -8 31 3 4 4
3 6 -4 4 -6 -2 -11 2 -11 7 0 6 4 9 9 8 5 -2 9 2 9 7 0 6 5 10 11 10 6 0 7 -5
2 -12 -13 -23 -14 -50 -1 -45 7 2 18 -5 25 -17 11 -19 12 -19 8 9 -2 17 -4 32
-4 34 -1 2 -8 -2 -16 -9 -13 -11 -14 -10 -9 4 7 18 20 21 29 6 3 -5 12 -7 19
-4 7 3 22 -3 32 -13 11 -10 13 -13 5 -8 -11 8 -13 7 -7 -4 6 -9 5 -12 -5 -9
-8 3 -13 11 -12 17 2 6 -2 11 -7 11 -19 0 -10 -27 13 -37 33 -15 52 -2 38 26
-10 17 -9 20 4 15 8 -4 15 -1 15 7 0 7 3 9 7 6 3 -4 12 1 20 11 13 15 13 15 4
-5 -8 -16 -7 -22 5 -27 12 -4 15 -2 11 9 -4 8 -2 17 3 20 4 3 7 -6 5 -20 -1
-14 1 -28 6 -31 4 -2 5 -12 2 -21 -4 -11 -2 -14 8 -11 15 6 15 10 4 43 -4 13
0 10 11 -7 18 -26 43 -41 28 -16 -4 6 -3 8 4 4 6 -3 9 -16 7 -28 -4 -17 -2
-19 7 -10 17 17 33 15 19 -2 -9 -11 -9 -16 0 -22 8 -5 9 -3 4 6 -6 10 -4 12 9
7 14 -6 15 -4 5 15 -10 18 -9 20 6 15 9 -4 19 -7 21 -7 3 0 2 -6 -2 -12 -6
-10 -5 -10 7 -1 9 7 20 9 25 5 5 -4 5 -3 1 3 -4 5 -12 10 -17 10 -18 0 -15 18
3 21 10 1 14 -2 10 -9 -4 -6 0 -8 10 -4 24 9 47 -2 57 -27 8 -19 9 -18 7 7 -1
15 -7 27 -14 27 -7 0 -13 4 -13 8 0 5 7 9 15 9 14 0 19 -10 16 -29 0 -5 4 -8
10 -8 5 0 7 -6 3 -12 -6 -10 -5 -10 8 -1 8 7 19 9 23 5 5 -4 5 -1 1 6 -4 7
-13 9 -19 6 -7 -4 -9 -4 -5 1 4 4 2 15 -4 24 -10 13 -10 14 1 4 7 -6 21 -9 30
-6 12 4 13 3 2 -5 -17 -12 1 -23 19 -11 20 12 30 11 30 -1 0 -5 -3 -9 -7 -9
-37 6 -44 -15 -10 -31 20 -10 20 -10 5 3 -10 8 -15 17 -11 20 3 4 13 1 21 -6
11 -8 14 -8 9 0 -4 6 -3 14 3 18 5 3 10 -1 10 -9 0 -9 3 -16 8 -17 4 0 15 -2
25 -4 10 -2 14 1 11 7 -4 6 -1 8 7 6 8 -3 13 -11 11 -18 -2 -10 1 -11 10 -3 7
5 41 9 75 8 34 0 60 2 57 6 -2 4 -12 6 -22 5 -9 -2 -20 2 -24 7 -4 7 -12 6
-22 -2 -13 -11 -16 -11 -16 0 0 12 -2 12 -9 1 -7 -11 -9 -11 -14 0 -4 11 4 14
32 13 20 -1 42 -5 49 -9 7 -4 15 -1 18 8 3 9 11 16 16 16 7 0 6 -5 -1 -14 -9
-10 -8 -15 3 -19 9 -4 18 -2 21 4 4 5 12 9 18 8 27 -3 38 2 31 14 -5 8 -2 7 9
-2 11 -9 15 -21 11 -34 -4 -13 -2 -17 5 -13 6 4 11 16 11 26 0 10 4 21 10 25
5 3 8 -7 5 -25 -3 -27 -2 -29 16 -20 10 6 19 16 18 23 0 9 -2 9 -6 0 -2 -7 -9
-13 -15 -13 -7 0 -7 5 1 13 6 8 7 18 3 23 -4 5 3 1 15 -10 13 -10 19 -25 16
-34 -4 -14 -3 -15 5 -2 6 8 8 18 6 22 -3 4 0 8 5 8 6 0 11 -4 11 -10 0 -5 5
-10 11 -10 5 0 8 4 5 8 -2 4 4 14 16 21 11 7 17 8 13 2 -3 -6 -1 -11 5 -11 6
0 8 -5 4 -11 -4 -8 -9 -7 -15 2 -6 10 -9 10 -9 2 0 -19 17 -24 30 -8 7 8 17
15 22 15 6 0 5 -7 -2 -15 -18 -22 -3 -18 19 4 11 11 17 22 13 25 -3 3 -2 6 1
6 4 0 16 -14 26 -31 l19 -31 13 23 c7 13 12 28 10 34 -1 5 6 2 16 -7 12 -11
23 -14 33 -8 20 12 51 -6 43 -27 -4 -11 -3 -14 6 -9 7 5 10 14 7 21 -6 17 21
28 30 13 4 -7 3 -8 -4 -4 -8 5 -10 1 -5 -10 5 -14 8 -12 20 10 7 14 16 26 19
26 3 0 2 -4 -1 -10 -3 -5 1 -10 10 -10 10 0 13 -5 9 -12 -6 -10 -5 -10 7 -1
12 10 18 10 29 0 12 -10 12 -9 2 5 -9 11 -10 18 -2 23 8 5 8 10 0 20 -8 10 -8
15 1 21 7 4 9 3 5 -4 -3 -6 3 -17 15 -25 13 -9 16 -17 10 -22 -6 -3 -11 -1
-11 6 0 7 -3 10 -6 6 -3 -3 -1 -14 5 -24 6 -10 11 -12 11 -6 0 13 26 13 48 0
7 -5 12 -3 12 5 0 9 3 9 10 -2 7 -12 10 -12 10 -1 0 8 6 11 15 7 37 -15 50
-18 37 -8 -11 7 -11 10 2 15 9 4 16 1 16 -6 0 -9 3 -8 9 1 4 8 12 14 17 15 5
1 8 4 7 7 -1 3 -4 14 -8 25 -6 18 -5 18 5 2 6 -9 16 -14 22 -11 8 5 9 1 4 -12
-4 -10 -4 -15 0 -11 5 4 14 -3 21 -15 l14 -23 -7 25 c-6 23 -6 24 11 10 14
-11 17 -11 11 -1 -7 10 -3 12 13 6 14 -4 23 -2 26 8 8 19 34 17 40 -4 3 -10
15 -17 26 -16 11 1 17 7 15 14 -3 7 2 13 10 13 9 0 12 -5 8 -12 -4 -7 -3 -8 4
-4 6 4 22 2 34 -5 l23 -12 -20 21 c-11 11 -22 19 -25 18 -3 0 -6 2 -7 7 -2 4
0 7 3 6 4 0 10 5 14 11 4 7 13 9 19 6 6 -4 9 -12 5 -17 -3 -5 -10 -6 -16 -3
-7 4 -8 2 -4 -4 4 -6 13 -9 22 -5 9 3 14 0 12 -7 -2 -7 8 -14 22 -16 14 -2 20
-1 14 3 -6 5 -10 16 -8 26 1 9 -2 15 -7 11 -5 -3 -6 -11 -3 -17 4 -7 3 -8 -1
-4 -20 18 -13 35 12 31 13 -3 22 -1 19 5 -3 5 2 15 12 22 15 13 16 12 3 -3 -7
-10 -10 -18 -5 -18 4 0 3 -5 -4 -12 -7 -7 -12 -16 -12 -22 0 -5 6 -2 13 8 12
16 17 17 38 6 13 -7 21 -9 17 -5 -10 10 10 47 22 40 4 -3 11 1 13 7 4 9 6 9 6
1 1 -6 -6 -18 -14 -27 -17 -17 -19 -26 -6 -26 5 0 13 9 16 20 4 11 11 18 16
14 7 -4 7 -10 0 -18 -7 -8 -1 -11 22 -10 54 2 57 3 57 22 0 14 -2 15 -10 2
-11 -18 -50 -22 -50 -6 0 6 5 18 11 26 9 13 10 12 5 -2 -3 -12 0 -18 9 -18 8
0 14 3 14 8 -3 19 2 23 16 12 18 -15 20 0 3 20 -11 12 -10 12 5 1 10 -8 15
-21 12 -32 -4 -12 1 -22 16 -29 13 -7 19 -8 15 -2 -3 6 -2 13 3 17 6 3 8 13 5
23 -5 14 -4 15 5 2 6 -8 8 -23 5 -32 -3 -10 -1 -18 5 -18 5 0 8 15 6 33 -3 20
-1 27 4 19 4 -8 11 -13 15 -13 18 3 27 0 22 -7 -2 -4 4 -8 14 -8 10 0 16 6 13
13 -3 7 -9 11 -13 8 -5 -3 -12 -1 -15 5 -4 6 -3 10 2 9 21 -4 34 2 27 13 -4 7
-3 8 4 4 6 -4 9 -13 6 -20 -3 -7 3 -19 13 -27 16 -13 17 -12 4 4 -9 12 -10 17
-2 17 7 0 10 4 7 9 -3 5 2 15 12 22 16 13 16 13 2 -5 -14 -18 -13 -19 3 -13
13 5 20 0 27 -18 13 -34 18 -31 14 7 -3 22 -1 28 5 19 5 -8 16 -11 24 -8 11 4
14 1 11 -8 -4 -9 1 -13 13 -11 10 2 24 -4 31 -13 11 -14 11 -13 2 7 -11 23 -5
46 10 37 5 -3 13 3 19 12 6 11 11 13 11 5 0 -9 7 -11 19 -7 26 8 46 -25 28
-45 -10 -12 -9 -12 4 -2 9 6 20 8 24 4 5 -4 5 -1 1 5 -9 16 6 17 22 1 7 -7 12
-8 12 -4 0 5 8 2 18 -5 15 -12 16 -12 5 2 -10 12 -10 18 0 29 10 10 9 11 -2 5
-9 -5 -8 0 3 17 9 14 13 29 9 33 -5 5 4 1 19 -8 34 -21 38 -21 38 -1 0 9 -5
12 -12 8 -7 -4 -8 -3 -4 4 4 6 13 9 21 6 11 -5 12 -11 4 -25 -5 -10 -7 -19 -3
-19 3 0 0 -8 -7 -17 -12 -16 -12 -17 2 -6 9 7 18 10 22 7 3 -3 4 2 3 13 -2 10
1 23 6 30 6 7 3 15 -8 21 -10 5 -12 12 -6 16 5 3 13 -1 16 -10 3 -8 10 -12 16
-9 5 3 10 0 10 -7 0 -10 3 -9 11 2 9 13 10 13 6 0 -2 -8 -12 -14 -22 -12 -11
2 -14 -1 -9 -9 5 -8 3 -10 -5 -4 -10 6 -11 3 -2 -12 6 -11 7 -24 3 -28 -4 -5
-2 -5 5 -2 6 4 13 4 16 0 2 -5 3 -3 1 3 -3 15 33 36 41 24 3 -6 12 -10 18 -9
9 0 9 2 1 5 -19 8 -5 41 22 53 14 6 22 16 19 21 -3 6 -1 10 5 10 6 0 9 -10 6
-22 -2 -13 1 -32 6 -43 8 -18 8 -18 4 2 -4 20 -1 22 20 17 13 -3 24 -2 24 4 0
5 -7 9 -16 8 -9 0 -18 5 -20 12 -1 7 0 8 3 2 2 -5 9 -10 14 -10 6 0 7 4 4 10
-3 5 -1 10 4 10 6 0 11 -5 11 -11 0 -5 5 -7 12 -3 6 4 8 3 5 -2 -3 -6 5 -10
18 -10 13 0 21 4 19 8 -3 4 5 8 18 8 18 0 20 -2 8 -10 -9 -6 -10 -10 -3 -10 6
0 15 5 18 11 5 7 14 4 28 -8 21 -18 21 -17 7 1 -14 18 -13 18 10 12 19 -6 21
-5 10 3 -13 9 -13 11 2 11 9 0 19 -6 21 -12 4 -8 6 -7 6 4 1 9 -2 18 -6 21 -5
2 -2 2 4 1 7 -2 17 5 22 14 6 9 11 12 11 5 0 -6 -5 -15 -11 -19 -17 -10 10
-23 38 -18 18 3 23 1 17 -8 -4 -7 -4 -10 1 -6 4 4 15 2 24 -5 14 -11 14 -10 2
6 -15 20 -9 22 21 6 15 -8 19 -8 14 0 -4 6 -2 11 4 11 7 0 10 5 8 11 -4 13
-24 11 -20 -2 3 -13 -12 -11 -26 3 -9 9 -12 9 -12 -1 0 -7 -4 -9 -10 -6 -5 3
-10 14 -10 23 0 10 3 13 8 7 11 -16 45 -19 36 -3 -4 7 -4 10 1 6 4 -4 14 0 22
10 11 13 13 13 10 2 -2 -8 7 -23 20 -33 21 -17 25 -17 45 -3 12 9 18 16 13 16
-5 0 -1 6 9 13 16 12 16 13 -5 14 -11 1 -19 -1 -15 -4 8 -8 -13 -43 -26 -43
-7 0 -6 5 2 15 7 8 9 15 5 15 -4 0 -2 6 4 13 6 8 8 17 4 20 -3 4 -1 7 5 7 6 0
14 -5 17 -10 4 -6 11 -7 17 -4 6 4 5 9 -3 15 -12 7 -12 10 0 21 9 8 11 9 7 1
-3 -6 -2 -14 4 -18 6 -4 8 -11 5 -16 -4 -5 -1 -10 4 -10 6 -1 17 -2 24 -3 6
-1 11 -10 9 -21 -2 -16 -1 -17 7 -5 7 9 6 19 0 27 -6 7 -8 17 -4 22 3 7 0 8
-9 5 -9 -3 -16 -2 -16 3 0 5 9 9 20 10 14 1 20 -3 18 -15 -2 -11 4 -17 17 -17
22 0 27 22 11 45 -9 13 -8 13 5 3 11 -9 19 -9 26 -2 7 7 22 4 48 -11 23 -13
35 -16 32 -8 -12 33 27 55 61 34 15 -9 16 6 2 20 -7 7 -6 11 3 11 13 0 15 -6
19 -48 2 -16 5 -17 13 -7 12 16 50 24 40 9 -10 -17 1 -13 16 6 10 11 10 14 2
9 -7 -4 -13 -3 -13 2 0 5 -7 9 -15 9 -8 0 -12 -3 -10 -7 2 -4 -1 -7 -8 -7 -7
0 -13 12 -12 27 0 23 4 26 30 25 16 -1 39 6 50 14 18 15 19 15 6 -1 -7 -10 -9
-18 -3 -18 14 0 33 26 25 34 -4 4 0 4 10 0 9 -3 17 -10 17 -15 0 -5 3 -8 8 -8
18 3 33 -2 28 -9 -2 -4 6 -8 19 -8 17 0 22 5 20 18 -2 10 0 18 6 18 8 0 13
-15 10 -33 -1 -4 8 -3 19 3 23 12 27 22 6 14 -17 -6 -16 20 1 37 7 7 14 4 24
-8 13 -16 12 -17 -3 -5 -9 8 -19 9 -22 4 -8 -13 30 -22 42 -10 6 6 12 6 16 -1
9 -14 66 14 67 32 0 6 4 3 8 -7 7 -19 8 -19 13 2 4 12 2 20 -3 16 -5 -3 -9 6
-9 20 0 14 5 26 11 26 5 0 7 -5 3 -11 -7 -12 15 -31 28 -23 4 3 8 11 8 17 0 7
-4 6 -10 -3 -7 -12 -9 -10 -8 6 2 18 12 23 35 15 1 -1 -2 -13 -7 -27 -7 -16
-7 -23 0 -19 6 3 10 13 10 21 0 9 5 12 12 8 7 -4 8 -3 4 4 -6 11 6 16 27 13 4
0 7 3 7 8 0 5 12 7 28 5 60 -10 87 -10 94 -1 9 14 -2 38 -14 31 -6 -4 -5 -10
3 -16 11 -7 10 -8 -4 -4 -11 3 -16 2 -12 -4 3 -6 1 -10 -4 -10 -17 0 -13 18 8
39 18 18 18 18 30 0 15 -25 28 -24 36 2 4 11 10 18 13 14 10 -10 9 -29 -3 -38
-6 -5 -4 -7 5 -4 8 2 16 13 16 25 2 36 3 37 17 17 11 -14 16 -15 22 -5 6 9 4
11 -5 5 -8 -5 -11 -3 -8 6 6 17 30 19 41 4 5 -6 7 -4 4 5 -2 8 -9 14 -14 13
-5 -1 -10 5 -10 13 0 10 4 11 11 4 17 -17 30 -11 15 7 -13 15 -12 15 8 2 15
-9 19 -17 13 -23 -13 -13 -13 -26 1 -26 5 0 8 4 4 9 -3 5 -1 12 5 16 6 4 8 11
5 16 -4 5 0 9 8 9 10 0 13 -7 10 -19 -3 -10 0 -22 6 -25 7 -5 8 -1 5 9 -9 21
16 51 28 33 5 -9 7 -5 5 10 -2 13 -8 27 -13 30 -14 11 -14 29 1 29 7 0 11 -5
9 -12 -3 -6 5 -11 16 -12 11 -1 19 1 19 5 -3 19 2 32 12 32 8 0 8 -4 1 -13 -8
-10 -5 -16 11 -27 19 -11 20 -11 10 1 -10 12 -6 20 23 43 19 15 31 32 28 38
-5 7 -2 8 5 3 9 -5 7 -13 -10 -31 -26 -27 -22 -30 15 -11 14 8 22 18 18 22 -4
5 -1 4 7 0 12 -7 11 -11 -7 -23 -12 -8 -22 -18 -22 -23 0 -5 9 -1 20 9 12 9
26 17 32 17 6 0 13 7 15 15 4 12 3 12 -5 2 -8 -11 -10 -11 -14 0 -4 9 3 14 23
14 16 1 29 -3 29 -8 0 -5 -6 -6 -12 -2 -7 4 -10 4 -6 -1 4 -4 3 -14 -3 -21 -7
-8 -7 -14 1 -19 6 -4 9 -1 8 7 -2 7 3 12 10 10 6 -1 11 1 11 5 -4 22 2 33 14
27 9 -6 9 -5 0 8 -7 8 -9 18 -5 23 4 4 -3 3 -15 -4 -28 -14 -30 -14 -30 3 0 8
6 12 15 9 8 -3 18 0 22 7 6 10 12 10 26 0 15 -9 16 -10 2 -6 -11 3 -15 1 -12
-8 3 -7 11 -13 19 -13 8 0 12 4 10 8 -6 9 24 34 32 25 3 -3 17 1 30 9 13 9 23
13 23 9 0 -4 8 0 17 7 15 12 16 12 10 -4 -4 -11 -3 -16 4 -12 6 4 8 13 5 20
-7 19 17 37 32 25 8 -7 9 -7 3 1 -5 6 -7 19 -4 28 3 9 -4 5 -16 -9 -11 -14
-21 -20 -21 -14 0 6 7 17 15 24 8 7 12 17 8 23 -4 6 -1 7 8 1 8 -5 22 -7 32
-6 9 2 17 -1 17 -6 0 -6 10 -9 23 -8 17 1 23 7 24 30 0 19 -2 24 -7 15 -5 -7
-7 -16 -4 -20 8 -14 -22 -16 -40 -3 -11 7 -23 11 -29 7 -6 -3 -7 -1 -3 5 5 9
13 9 26 2 25 -13 33 -13 24 2 -4 6 -3 8 4 4 5 -3 12 -1 14 6 2 6 11 12 19 14
7 1 26 4 41 7 15 3 29 1 32 -4 2 -5 3 -4 2 3 -2 7 -13 12 -24 12 -12 -1 -22 3
-22 8 0 6 13 8 29 6 19 -3 27 0 24 7 -3 8 8 11 32 10 30 -2 34 -1 23 12 -10
12 -9 14 8 11 15 -2 19 2 18 24 -1 15 2 27 5 26 20 -2 22 4 5 18 -18 15 -18
15 0 6 11 -5 21 -17 22 -26 1 -9 -2 -14 -7 -10 -5 3 -9 0 -9 -5 0 -15 11 -13
34 4 11 8 14 15 7 15 -7 0 -9 5 -5 12 4 7 3 8 -4 4 -7 -4 -12 -2 -12 3 0 6 5
11 11 11 5 0 7 4 4 10 -3 6 1 7 10 4 11 -5 14 -2 9 12 -5 16 -4 16 5 4 6 -9 7
-18 1 -24 -16 -16 -12 -25 9 -23 14 1 17 5 11 13 -6 6 -7 14 -3 17 3 4 12 -1
20 -11 12 -16 13 -15 6 3 -6 17 -5 18 9 7 11 -9 18 -10 23 -2 4 6 1 9 -5 8 -7
-2 -14 5 -15 15 -3 17 3 20 38 20 14 0 15 2 5 15 -11 13 -10 15 4 9 10 -3 20
-3 22 2 8 13 -28 9 -44 -5 -14 -11 -16 -10 -17 9 -2 17 0 19 7 7 9 -14 11 -13
14 10 0 5 8 15 16 22 12 11 12 11 1 -4 -11 -15 -11 -18 2 -18 9 0 18 9 22 19
3 11 12 18 20 15 7 -3 16 0 21 7 4 7 3 10 -2 7 -5 -3 -15 1 -23 9 -12 13 -11
14 10 8 26 -8 27 -8 48 -6 11 1 11 4 1 16 -10 12 -9 20 6 42 10 17 19 23 22
15 5 -15 22 -6 18 11 -1 7 -1 9 1 5 3 -5 9 -8 14 -8 6 0 7 5 3 12 -4 6 -3 8 4
4 6 -3 15 1 20 10 9 15 10 15 16 -4 4 -12 12 -22 18 -22 6 0 5 7 -3 16 -11 14
-10 18 6 30 14 11 22 11 33 2 11 -10 17 -9 27 5 6 9 16 13 20 9 5 -4 5 -1 0 7
-7 12 -10 11 -20 -2 -16 -22 -26 -22 -19 1 4 12 3 13 -3 4 -8 -10 -12 -10 -23
3 -11 13 -10 14 5 9 14 -6 16 -4 10 6 -6 10 -4 11 6 4 8 -5 31 -9 52 -10 36 0
49 9 58 41 5 18 26 34 35 27 5 -4 5 -3 1 2 -10 13 -39 17 -32 5 4 -5 -1 -6
-10 -2 -13 4 -14 8 -4 14 7 4 16 6 20 3 4 -2 10 3 13 11 3 8 11 14 18 13 7 -2
12 4 10 14 -1 9 2 19 8 23 6 4 7 -1 3 -12 -5 -14 -3 -16 7 -6 15 14 43 6 33
-10 -3 -6 -1 -7 5 -3 17 11 15 14 -20 37 l-33 20 30 -3 c17 -2 36 -10 43 -18
10 -12 10 -10 0 13 -8 20 -14 24 -20 15 -5 -9 -8 -10 -8 -1 0 21 23 27 35 10
18 -25 25 -21 12 7 -7 13 -14 23 -17 21 -3 -2 -12 1 -20 7 -12 8 -12 9 3 4 11
-3 20 0 23 9 4 8 10 13 14 10 4 -3 11 6 14 20 4 14 13 25 21 25 21 0 19 18 -2
23 -16 4 -16 5 -1 6 9 0 26 -11 37 -25 28 -35 27 -21 -1 16 -11 16 -26 26 -32
23 -6 -4 -7 -2 -3 3 5 5 14 9 20 9 7 0 11 8 11 18 -2 14 1 15 12 6 16 -13 19
2 3 18 -7 7 -6 12 4 16 9 3 14 -1 13 -11 0 -9 8 -18 19 -20 12 -2 16 0 10 5
-13 10 -17 53 -5 53 5 0 12 -5 16 -12 4 -6 3 -8 -3 -5 -5 3 -10 0 -10 -8 0 -8
4 -15 8 -15 7 0 22 31 17 35 -2 1 -12 7 -23 13 -25 14 -1 16 25 2 13 -7 21 -7
25 0 4 6 3 10 -2 9 -18 -3 -33 2 -33 11 0 6 8 10 18 11 9 0 12 3 5 5 -7 3 -10
13 -7 22 3 9 -2 5 -11 -10 -8 -16 -20 -28 -26 -28 -6 0 -3 7 6 16 9 9 14 23
11 31 -3 8 -1 11 4 8 13 -8 13 1 -1 27 -6 12 -7 18 -1 14 15 -9 22 20 9 34 -9
10 -9 11 0 6 6 -3 14 -2 18 4 3 5 2 10 -3 10 -5 0 -12 9 -15 20 -3 11 -2 18 2
16 11 -7 36 12 36 26 0 7 8 14 19 16 11 3 16 0 11 -7 -3 -6 -10 -9 -15 -6 -5
3 -7 -4 -5 -15 3 -13 0 -18 -7 -14 -7 4 -8 3 -4 -4 10 -17 29 -15 23 2 -3 8 0
20 8 26 17 14 9 41 -11 33 -8 -3 -14 0 -14 6 0 6 4 11 8 11 5 0 17 7 28 16 18
15 18 15 -3 5 -34 -17 -40 -12 -13 9 l25 20 -25 -4 c-18 -2 -25 -9 -24 -24 1
-12 -3 -19 -7 -16 -13 8 -11 -10 4 -25 8 -9 8 -12 0 -7 -6 3 -13 3 -16 -1 -2
-5 -2 -2 -1 4 2 7 -1 13 -5 13 -14 0 -7 27 13 49 11 12 14 21 7 26 -6 3 -11 1
-11 -4 0 -6 -7 -11 -15 -11 -8 0 -15 5 -15 11 0 5 4 8 9 4 12 -7 24 12 16 25
-5 8 -11 7 -21 -1 -8 -6 -14 -9 -14 -5 0 3 13 14 30 24 28 17 29 20 14 38 -13
16 -15 16 -10 2 3 -10 2 -19 -2 -22 -4 -3 -8 11 -9 30 0 19 4 34 9 34 5 0 6 5
3 10 -5 8 -11 8 -20 0 -9 -7 -16 -6 -24 4 -8 10 -9 16 -1 21 6 4 9 3 8 -2 -2
-4 1 -8 7 -8 5 0 11 8 12 18 2 12 -1 16 -9 11 -7 -4 -8 -3 -4 4 4 7 1 12 -6
12 -8 0 -9 3 -3 8 10 6 11 15 6 40 -1 4 -6 0 -12 -8 -9 -13 -10 -13 -6 0 2 8
10 14 17 12 13 -3 5 35 -11 53 -12 12 -11 25 2 25 5 0 7 -5 3 -12 -4 -7 -3 -8
4 -4 6 4 8 14 5 23 -4 9 -2 14 3 10 6 -3 10 5 10 19 0 13 -4 24 -9 24 -5 0 -7
-6 -4 -14 3 -8 -1 -20 -10 -28 -14 -11 -15 -10 -8 11 5 18 4 22 -6 16 -9 -6
-11 -3 -6 9 4 9 3 15 -2 12 -8 -5 -25 29 -22 47 1 4 -3 7 -9 7 -13 0 -13 -6 1
-33 9 -18 9 -20 -1 -10 -7 6 -20 9 -29 6 -12 -4 -13 -3 -3 5 21 14 10 48 -13
44 -16 -2 -17 -1 -5 7 13 9 12 12 -5 26 -19 14 -18 15 7 4 15 -7 26 -16 25
-22 -1 -5 4 -11 11 -12 7 -2 8 -1 3 1 -5 3 -7 22 -5 42 2 26 1 30 -4 14 l-7
-24 -26 21 c-15 11 -29 17 -33 14 -3 -3 -6 -1 -6 6 0 8 7 11 15 7 8 -3 15 -1
15 3 0 13 -28 22 -35 11 -6 -10 -31 -7 -42 5 -4 4 -3 5 3 2 11 -6 29 19 26 35
-1 4 6 4 16 1 11 -4 8 2 -8 15 -20 17 -22 23 -11 31 9 6 10 11 2 15 -6 4 -11
2 -11 -4 0 -6 -5 -8 -10 -5 -6 4 -7 11 -4 17 4 6 2 8 -3 5 -6 -4 -14 0 -17 9
-4 12 -1 14 14 9 11 -4 20 -2 20 3 0 8 -13 9 -54 3 -6 0 -5 -6 2 -13 15 -15
15 -28 1 -28 -5 0 -8 4 -4 9 3 6 -3 14 -12 20 -15 8 -16 12 -4 23 12 11 13 11
6 -1 -6 -10 -4 -12 4 -7 9 6 9 12 -2 24 -8 10 -17 26 -19 37 -3 17 -5 15 -10
-7 -3 -17 -1 -25 5 -21 6 4 7 1 2 -7 -6 -9 -4 -11 6 -5 11 7 11 5 -1 -11 -22
-29 -24 -30 -17 -12 6 17 -24 44 -35 33 -3 -3 -5 2 -5 10 0 11 4 12 11 5 16
-16 21 -12 22 15 2 22 0 24 -14 13 -12 -10 -16 -10 -19 0 -3 6 -9 10 -14 6 -5
-3 -7 11 -4 33 2 21 1 32 -3 25 -6 -9 -12 -6 -20 13 -6 14 -8 25 -3 25 5 0 12
-6 15 -12 2 -7 4 -3 2 9 -1 12 -6 26 -11 30 -4 5 -5 3 -1 -4 7 -12 -18 -15
-61 -7 -17 3 -22 11 -21 29 1 14 6 25 10 25 4 0 8 5 8 10 0 6 -3 9 -7 9 -21
-3 -33 2 -27 13 5 7 3 8 -6 3 -10 -6 -12 -1 -8 18 3 15 1 24 -3 21 -5 -3 -9
-14 -9 -25 0 -12 -4 -17 -11 -13 -6 3 -9 14 -6 24 3 11 -1 17 -12 16 -9 0 -15
5 -13 13 2 11 0 12 -11 3 -9 -8 -17 -8 -24 -1 -6 6 -10 5 -10 -5 0 -8 5 -13
10 -9 5 3 4 -4 -2 -14 -6 -11 -7 -24 -3 -29 4 -5 -1 -2 -10 5 -19 14 -25 26
-8 16 6 -4 8 7 4 30 -3 23 -2 35 4 31 6 -3 12 0 15 8 3 8 -1 13 -11 12 -10 0
-16 5 -14 13 2 8 -3 11 -13 8 -10 -4 -15 0 -16 11 0 14 -2 14 -8 -3 -10 -24
-5 -36 12 -29 7 2 13 -4 14 -16 2 -18 0 -19 -13 -5 -9 8 -20 13 -25 9 -5 -3
-8 0 -7 7 2 7 -3 13 -9 14 -15 0 -18 13 -7 23 4 4 4 2 1 -4 -3 -6 0 -11 8 -11
12 0 12 4 -2 21 -10 12 -19 23 -20 25 -1 2 -9 -2 -18 -9 -9 -8 -15 -8 -15 -2
0 6 5 14 10 17 15 9 12 28 -3 22 -18 -7 -79 41 -71 55 4 7 2 8 -5 4 -9 -6 -9
-11 0 -22 7 -8 7 -14 1 -14 -19 0 -32 26 -20 38 7 7 8 12 2 12 -5 0 -15 -9
-22 -21 -10 -15 -10 -19 -1 -14 8 5 10 4 5 -4 -12 -18 -27 -1 -21 22 5 17 4
19 -4 7 -6 -8 -11 -10 -11 -4 0 6 -11 12 -25 13 -48 3 -54 4 -49 13 3 4 -2 11
-10 14 -9 3 -16 11 -16 17 0 5 9 2 20 -8 12 -11 20 -13 20 -6 0 7 5 9 11 5 8
-4 7 -9 -2 -16 -11 -8 -10 -9 3 -5 9 3 19 1 21 -6 2 -7 4 0 3 14 -1 22 -5 25
-29 23 -17 -2 -26 0 -22 6 4 6 1 9 -7 8 -7 -2 -12 3 -10 10 1 8 -2 11 -8 7 -6
-3 -8 -11 -5 -16 4 -5 1 -9 -5 -9 -6 0 -9 -4 -6 -9 3 -5 -1 -14 -8 -20 -11 -9
-14 -9 -12 1 1 7 5 19 9 26 5 6 4 12 -2 12 -5 0 -11 6 -14 13 -2 6 -3 4 -2 -5
3 -20 -11 -33 -20 -19 -3 6 -13 8 -23 5 -13 -5 -14 -4 -4 4 11 7 10 10 -3 16
-22 8 -27 8 -21 -2 3 -5 -1 -9 -8 -9 -7 0 -13 6 -13 13 0 7 4 11 8 8 4 -2 7 5
6 16 -1 10 -8 22 -15 25 -10 3 -12 0 -9 -10 4 -8 2 -17 -2 -20 -5 -3 -8 9 -7
25 2 22 -4 34 -22 46 l-23 15 17 -26 c9 -14 14 -28 10 -32 -3 -3 -6 -1 -6 7 0
9 -3 10 -13 1 -10 -8 -14 -7 -14 4 0 8 5 11 10 8 6 -3 7 -1 3 5 -10 17 -36 15
-30 -2 3 -8 0 -17 -7 -22 -9 -5 -11 -2 -6 8 8 21 -3 31 -19 17 -15 -12 -34 -4
-34 14 0 7 4 6 10 -3 5 -8 13 -11 17 -6 4 4 1 13 -9 20 -12 9 -14 16 -6 29 7
13 6 17 -4 15 -7 -2 -12 3 -10 10 1 8 -2 11 -9 7 -7 -5 -8 -10 0 -18 10 -10
-13 -36 -33 -37 -6 0 -1 6 9 14 16 12 17 14 2 22 -15 9 -17 12 -17 35 0 5 -5
7 -12 3 -8 -5 -9 -1 -5 12 7 18 6 18 -6 2 -13 -16 -16 -16 -48 1 -19 11 -33
24 -32 30 2 6 -4 8 -14 4 -15 -6 -15 -7 0 -18 9 -7 14 -15 10 -19 -4 -4 -1 -5
7 -3 8 2 12 2 7 0 -4 -3 -5 -9 -2 -14 4 -5 0 -7 -7 -4 -7 3 -20 20 -27 38 -26
59 -42 78 -56 67 -8 -7 -15 -7 -19 -1 -3 5 0 12 6 14 7 3 -2 4 -19 2 -18 -2
-33 1 -33 6 0 5 -9 1 -20 -8 -23 -20 -50 -26 -47 -10 1 7 -4 11 -11 9 -8 -1
-11 2 -7 8 3 5 2 10 -3 10 -6 0 -12 6 -15 13 -3 8 1 14 9 14 7 0 10 -5 7 -10
-4 -6 -1 -7 7 -2 9 6 11 4 5 -5 -6 -9 -4 -11 5 -5 9 6 11 4 5 -6 -5 -8 -5 -11
0 -7 4 4 15 2 23 -5 13 -9 14 -9 8 1 -4 7 -2 12 5 12 9 0 9 4 -1 15 -6 8 -9
19 -6 24 4 5 2 12 -3 15 -6 4 -8 -7 -6 -25 4 -26 2 -29 -10 -19 -8 7 -13 16
-10 20 3 5 -15 7 -40 6 -37 -2 -48 1 -57 17 -7 14 -7 17 1 13 6 -4 11 -3 11 1
0 5 -18 9 -39 9 -22 0 -38 -3 -36 -6 2 -4 -2 -7 -10 -7 -10 0 -12 4 -5 12 11
13 9 55 -3 55 -4 0 -7 -6 -6 -12 3 -25 -1 -38 -12 -38 -5 0 -7 5 -4 10 3 6 2
10 -4 10 -5 0 -12 -6 -14 -12 -4 -10 -6 -10 -6 0 -1 7 6 15 14 18 13 5 13 8
-1 21 -12 12 -12 18 -2 32 11 14 11 14 -3 3 -13 -10 -18 -10 -28 1 -6 8 -9 16
-6 19 3 2 -1 5 -8 5 -7 0 -13 -8 -13 -18 0 -9 5 -15 12 -12 6 2 15 -4 18 -14
6 -14 4 -15 -5 -6 -6 6 -18 9 -27 5 -11 -4 -14 -1 -9 11 3 9 2 19 -4 22 -5 4
-7 10 -4 15 3 4 -6 3 -19 -3 -14 -7 -24 -16 -23 -21 1 -5 -5 -11 -13 -13 -13
-4 -13 -3 0 6 14 10 7 16 -14 12 -5 -1 -4 5 4 13 9 12 9 16 1 16 -7 0 -9 5 -6
10 3 6 -1 13 -9 16 -9 3 -16 10 -16 16 0 5 4 7 9 3 5 -3 12 -1 15 4 4 5 -1 8
-10 7 -9 -1 -21 -11 -26 -21 -8 -13 -7 -16 1 -11 7 4 9 2 5 -7 -3 -8 -1 -18 5
-22 7 -3 8 0 5 9 -3 9 -2 16 4 16 13 0 8 -33 -6 -38 -5 -1 -13 6 -17 17 -3 12
-12 21 -20 21 -8 0 -17 9 -20 20 -3 11 -11 20 -16 20 -6 0 -7 5 -3 12 4 7 3 8
-5 4 -9 -6 -9 -11 0 -22 7 -8 7 -14 1 -14 -14 0 -23 27 -15 48 7 16 6 16 -11
-1 -10 -9 -22 -15 -27 -12 -5 4 -9 1 -9 -4 0 -6 -4 -11 -10 -11 -5 0 -9 3 -9
8 3 18 -2 32 -12 32 -5 0 -8 -4 -5 -8 3 -5 -1 -9 -9 -9 -13 0 -13 3 1 18 8 9
25 15 37 13 21 -4 21 -4 2 5 -14 6 -27 4 -43 -6 -13 -8 -26 -13 -28 -10 -3 2
7 12 21 21 14 9 25 22 24 29 0 9 -2 9 -6 -1 -4 -10 -8 -10 -21 0 -12 10 -14
10 -8 1 4 -8 2 -13 -8 -13 -8 0 -23 -3 -33 -6 -10 -3 -14 -2 -8 3 11 8 14 28
5 37 -3 2 -18 6 -33 8 -16 3 -33 11 -38 19 -8 10 -9 8 -4 -9 5 -16 3 -22 -7
-20 -7 2 -12 -3 -11 -9 2 -7 -2 -13 -7 -13 -13 0 -13 17 0 25 15 9 12 25 -6
25 -9 0 -13 -5 -9 -12 4 -7 0 -4 -9 6 -8 10 -13 24 -9 29 4 6 0 8 -9 4 -9 -3
-19 -3 -23 1 -4 4 -12 7 -18 7 -7 1 -11 6 -10 13 4 15 -2 15 -30 1 -19 -8 -20
-8 -7 3 9 7 16 24 17 38 0 14 -1 19 -4 12 -3 -6 -10 -9 -16 -5 -7 4 -7 0 1 -9
11 -14 10 -16 -7 -11 -12 3 -18 9 -16 14 3 4 -4 7 -15 6 -11 -1 -20 -7 -20
-15 0 -7 3 -11 8 -9 4 3 16 1 27 -4 16 -7 14 -8 -10 -5 -23 2 -30 8 -29 25 1
25 -9 27 -26 6 -7 -8 -17 -15 -23 -15 -6 0 -2 7 9 16 16 13 16 15 2 10 -10 -3
-18 -1 -18 4 0 6 7 10 15 10 9 0 12 6 8 16 -5 13 -8 13 -15 2 -6 -9 -8 -6 -6
11 3 21 -2 25 -27 28 -16 2 -36 4 -42 5 -7 1 -13 5 -13 9 0 4 -7 10 -16 13 -9
4 -13 2 -8 -5 4 -7 1 -10 -7 -7 -8 3 -20 -2 -27 -11 -10 -14 -11 -13 -5 4 6
18 5 18 -10 6 -9 -7 -14 -18 -10 -24 3 -6 1 -7 -5 -3 -13 8 -5 36 10 36 5 0 6
5 3 10 -4 6 -12 7 -18 3 -18 -11 -37 -12 -37 -2 0 6 6 9 13 7 6 -2 22 7 35 20
12 12 18 22 14 22 -4 0 -13 -5 -20 -12 -7 -7 -12 -8 -12 -2 0 6 5 15 12 22 8
8 8 12 1 12 -12 0 -25 -28 -18 -39 2 -4 -4 -8 -13 -8 -17 0 -41 24 -42 42 0 6
4 4 9 -4 6 -9 11 -10 15 -2 7 11 -5 15 -31 12 -7 -1 -13 6 -14 16 0 11 -3 13
-6 5 -3 -7 -1 -18 5 -25 12 -15 23 -47 16 -47 -2 0 -8 10 -13 23 -8 20 -19 25
-68 29 -7 1 -10 5 -7 10 7 11 -3 10 -25 -2 -15 -7 -18 -5 -17 15 1 13 5 27 9
31 3 4 5 -3 2 -15 -4 -24 -2 -25 27 -10 15 8 18 8 14 0 -5 -7 -1 -9 11 -5 15
5 16 4 3 -6 -13 -10 -13 -11 3 -6 9 3 17 0 17 -6 0 -6 2 -9 5 -6 9 9 -7 38
-21 38 -8 0 -14 5 -14 10 0 6 -5 10 -11 10 -5 0 -7 -4 -4 -10 3 -5 2 -10 -3
-10 -6 0 -13 7 -16 16 -4 10 -13 13 -26 9 -12 -4 -20 -2 -20 5 0 6 4 9 8 6 4
-2 8 4 8 15 0 20 -1 20 -16 0 -11 -15 -19 -18 -30 -11 -10 6 -21 4 -35 -8 -19
-16 -19 -16 -6 1 15 20 2 23 -19 5 -12 -11 -12 -10 -2 3 13 18 7 30 -12 23
-19 -7 -40 45 -25 62 12 15 7 18 -25 14 -13 -1 -16 2 -10 12 4 7 4 10 -1 6 -4
-4 -15 -2 -23 5 -13 9 -14 9 -8 0 5 -9 1 -13 -10 -13 -10 0 -14 3 -11 7 4 3 2
12 -4 20 -9 10 -8 18 2 31 12 16 12 16 -6 0 -15 -14 -16 -20 -5 -32 8 -11 9
-16 1 -16 -6 0 -11 -4 -11 -9 0 -12 39 -21 46 -10 7 12 24 2 23 -14 0 -8 -2
-8 -6 1 -3 8 -9 10 -16 4 -16 -13 -60 5 -54 21 3 7 -4 24 -15 38 -11 13 -17
18 -13 11 10 -19 -15 -43 -36 -37 -15 5 -18 2 -12 -12 3 -10 3 -15 -1 -12 -4
4 -8 16 -11 28 -3 18 -1 20 15 11 25 -13 33 -13 24 2 -5 7 -3 8 7 3 12 -8 12
-6 0 8 -7 9 -19 17 -25 17 -6 0 -4 -5 4 -11 10 -7 11 -9 2 -7 -8 2 -13 7 -12
12 2 9 -19 26 -34 26 -5 0 -3 -7 4 -15 16 -19 3 -20 -16 -1 -17 17 -19 30 -3
20 8 -4 8 0 0 15 -7 11 -15 21 -19 21 -16 0 -34 -18 -28 -28 3 -6 -1 -9 -11
-8 -9 2 -19 8 -21 14 -2 7 -12 12 -22 12 -10 0 -21 7 -24 16 -3 8 -10 13 -15
9 -11 -6 -20 6 -26 36 -3 17 -2 19 10 9 10 -8 19 -9 32 -1 17 9 17 10 -2 10
-38 -1 -59 8 -67 27 -7 16 -8 16 -4 -3 2 -13 0 -23 -5 -23 -4 0 -6 -8 -3 -17
5 -14 4 -15 -4 -4 -6 8 -7 21 -4 30 5 13 3 14 -10 4 -8 -7 -18 -10 -21 -6 -4
3 -7 1 -7 -5 0 -7 -9 -3 -20 8 -12 12 -17 26 -14 32 11 17 11 57 1 51 -5 -3
-6 -14 -4 -25 4 -12 1 -18 -6 -15 -7 3 -11 10 -9 16 1 7 -2 10 -7 7 -5 -3 -15
2 -22 11 -12 15 -12 16 6 9 14 -5 17 -4 10 3 -7 7 -22 8 -43 2 -21 -7 -34 -6
-38 1 -4 6 -2 8 4 4 6 -3 14 -1 18 5 4 7 3 9 -4 5 -6 -3 -13 -2 -17 3 -7 12
-35 3 -35 -11 0 -6 8 -4 18 3 15 13 16 12 3 -4 -9 -12 -17 -15 -24 -8 -7 7 -5
16 4 27 8 10 9 15 2 11 -6 -4 -16 0 -21 9 -8 15 -10 15 -15 0 -4 -10 -3 -15 3
-11 6 3 10 1 10 -4 0 -6 -7 -11 -16 -11 -9 0 -12 -5 -8 -12 4 -8 3 -10 -2 -5
-5 5 -9 12 -9 15 -1 16 -17 32 -27 26 -7 -5 -8 -2 -3 5 5 9 10 10 18 2 13 -13
27 -14 27 -2 0 5 -9 13 -20 16 -11 4 -18 10 -15 15 3 4 -2 13 -10 20 -8 7 -15
9 -15 4 0 -5 -7 0 -15 10 -8 11 -15 15 -15 10 0 -6 -16 -8 -36 -6 -35 4 -36 4
-24 -19 10 -21 10 -22 -3 -7 -8 10 -16 16 -18 13 -3 -2 -6 6 -6 18 -2 17 0 18
7 7 7 -11 9 -10 7 7 0 12 -5 19 -11 16 -5 -4 -7 0 -4 8 4 10 -1 15 -15 17 -16
1 -18 -1 -8 -7 8 -5 10 -14 6 -21 -5 -9 -4 -11 3 -6 8 5 10 1 5 -9 -5 -13 -7
-14 -14 -3 -7 11 -9 10 -9 -1 0 -8 -3 -11 -6 -8 -4 4 -1 13 6 22 11 13 10 15
-6 12 -11 -1 -24 -6 -30 -10 -7 -4 -19 4 -28 18 -10 15 -22 23 -29 19 -7 -4
-9 -3 -4 1 4 5 18 10 30 12 13 2 17 0 10 -5 -8 -5 -8 -11 1 -24 7 -10 16 -15
19 -11 4 3 1 13 -6 21 -8 11 -8 14 0 9 6 -4 15 -3 18 3 4 6 3 10 -2 9 -20 -4
-27 2 -13 12 12 9 11 10 -5 4 -36 -12 -49 -12 -63 1 -7 7 -19 11 -26 8 -8 -3
-17 -1 -20 5 -4 6 -13 8 -22 4 -11 -4 -12 -9 -4 -18 8 -10 8 -15 -1 -21 -7 -4
-9 -3 -6 3 4 6 -1 17 -10 24 -15 12 -16 12 -10 -5 6 -16 5 -17 -8 -6 -12 10
-13 15 -3 21 6 4 15 6 19 3 4 -2 12 3 19 11 8 9 8 15 2 15 -6 0 -12 -5 -14
-12 -3 -9 -6 -9 -12 0 -3 6 2 20 14 32 11 11 16 20 11 20 -6 0 -16 -8 -23 -18
-7 -10 -18 -17 -25 -17 -15 0 -30 15 -15 15 22 0 12 16 -10 17 -38 0 -52 7
-65 28 -16 26 -16 14 -1 -20 8 -18 14 -22 20 -13 6 11 8 10 8 0 0 -7 4 -10 10
-7 6 4 7 -1 3 -11 -4 -12 -8 -14 -11 -6 -3 10 -7 10 -20 0 -12 -10 -14 -10 -8
0 4 6 2 12 -3 12 -6 0 -11 5 -11 11 0 13 -40 48 -55 49 -5 0 -4 -4 3 -9 8 -4
13 -12 13 -17 -1 -5 4 -9 11 -9 6 0 13 -7 15 -15 3 -10 2 -11 -4 -4 -4 6 -18
10 -30 9 -12 -1 -20 2 -17 7 3 4 -2 18 -10 30 -9 13 -16 17 -16 9 0 -10 -3
-11 -14 -2 -10 8 -16 9 -21 2 -4 -7 -15 -5 -30 5 -14 9 -22 20 -19 25 5 9 -9
13 -35 10 -8 -2 -10 2 -5 10 4 8 3 10 -5 5 -9 -6 -9 -11 0 -22 9 -11 14 -12
19 -4 5 8 9 7 13 -3 7 -20 -17 -52 -31 -43 -7 4 -12 13 -12 19 0 7 4 6 10 -3
5 -8 12 -11 16 -7 12 12 -16 36 -38 32 -16 -3 -18 -2 -8 10 6 8 8 20 4 26 -4
7 -3 9 4 5 6 -3 13 -3 16 2 2 4 -4 9 -15 9 -13 1 -19 -4 -17 -14 2 -9 -3 -18
-11 -21 -9 -3 -11 1 -7 16 4 12 2 23 -5 28 -8 4 -9 3 -5 -4 12 -20 -3 -33 -24
-22 -13 7 -21 7 -26 -1 -5 -9 -11 -6 -20 6 -8 10 -17 16 -20 12 -4 -4 -1 -14
7 -24 9 -11 10 -14 2 -9 -7 4 -18 16 -24 28 -7 13 -7 18 -1 14 6 -3 14 -1 18
5 4 8 9 7 15 -2 6 -10 8 -7 6 8 -1 20 -3 21 -17 8 -14 -13 -18 -12 -33 2 -13
13 -20 15 -29 5 -16 -16 -28 -15 -28 4 0 9 5 12 13 8 6 -4 9 -4 5 1 -4 4 -2
15 4 24 10 12 7 12 -8 -2 -22 -18 -41 -12 -23 9 7 8 6 14 -2 20 -7 4 -9 3 -5
-4 3 -6 2 -13 -3 -17 -6 -3 -8 -12 -5 -20 7 -17 -42 -13 -59 5 -10 10 -8 10 9
2 22 -12 34 -7 34 12 0 6 -5 4 -10 -4 -6 -10 -10 -11 -10 -2 0 6 -3 11 -7 11
-20 -3 -34 2 -28 11 10 16 -1 11 -16 -7 -10 -11 -10 -14 -1 -9 7 4 12 2 12 -4
0 -7 -6 -10 -12 -7 -7 2 -13 10 -13 17 0 7 -10 16 -22 21 -15 6 -20 4 -19 -6
1 -8 6 -18 11 -22 4 -4 5 -2 1 5 -4 6 -2 12 4 12 18 0 6 -23 -13 -26 -9 -1
-28 7 -41 17 -26 20 -45 21 -59 4 -4 -6 -10 -1 -13 12 -3 12 -15 25 -25 28
-20 7 -42 -2 -35 -14 3 -3 -4 -7 -15 -7 -18 0 -18 2 -5 12 28 20 24 22 -46 26
-36 3 -76 25 -44 25 8 0 13 -4 10 -9 -7 -11 3 -10 28 3 13 7 18 7 14 1 -4 -7
1 -9 14 -7 11 2 20 -2 20 -8 0 -7 5 -4 11 6 8 14 8 22 -1 30 -8 9 -9 7 -4 -8
7 -18 6 -18 -9 -6 -9 7 -17 10 -17 7 0 -4 -10 -2 -21 5 -12 6 -19 7 -16 2 6
-9 -110 -9 -120 0 -3 4 -1 12 5 20 8 10 6 13 -9 14 -10 1 -19 -3 -19 -8 0 -6
5 -7 12 -3 7 4 8 3 4 -5 -4 -6 -12 -9 -17 -6 -5 4 -9 -1 -9 -10 0 -10 5 -13
12 -9 7 4 8 3 4 -5 -9 -14 -26 -5 -26 15 0 17 -12 18 -27 3 -9 -9 -11 -3 -8
22 2 19 1 28 -2 21 -3 -9 -9 -10 -17 -3 -9 8 -13 7 -13 -4 0 -8 3 -12 7 -10 3
2 6 -8 7 -23 0 -15 -1 -19 -4 -9 -4 15 -7 16 -21 5 -10 -7 -14 -9 -10 -4 4 5
0 15 -8 23 -8 9 -12 23 -9 31 3 9 3 13 -1 10 -11 -12 -33 16 -23 29 7 7 6 14
-1 18 -6 4 -9 1 -8 -7 2 -7 -3 -12 -11 -10 -11 2 -12 0 -3 -11 7 -8 8 -18 4
-22 -4 -5 -1 -5 7 0 10 6 12 4 6 -5 -5 -9 -4 -11 3 -6 7 4 12 3 12 -2 0 -11
-30 -25 -38 -17 -3 3 0 5 7 5 7 0 9 5 6 10 -4 7 -14 6 -28 -1 -20 -9 -21 -9
-4 4 15 12 16 19 6 41 -10 21 -15 24 -26 14 -11 -9 -17 -9 -24 3 -6 10 -8 4
-4 -18 3 -19 1 -33 -5 -33 -5 0 -9 3 -9 8 3 18 -2 32 -12 32 -5 0 -8 -4 -4 -9
3 -5 0 -13 -6 -17 -7 -4 -9 -3 -5 4 3 6 2 13 -4 17 -5 3 -10 1 -10 -5 0 -6
-13 -2 -30 10 -29 20 -42 16 -19 -7 8 -8 8 -13 0 -18 -6 -3 -10 -1 -9 6 2 6
-3 14 -11 17 -9 3 -11 0 -6 -8 5 -9 4 -11 -3 -6 -9 5 -8 14 4 31 10 16 12 25
4 30 -6 3 -10 3 -9 -2 3 -19 -2 -33 -12 -33 -5 0 -8 4 -5 8 3 5 -13 7 -35 5
-26 -3 -39 0 -35 6 4 5 2 12 -3 15 -5 3 -7 -8 -6 -25 2 -21 -1 -27 -7 -21 -6
6 -17 8 -24 5 -8 -3 -14 0 -14 5 0 6 9 9 21 7 17 -3 19 -2 9 10 -6 8 -9 20 -5
27 4 7 -5 0 -20 -17 -14 -16 -24 -24 -20 -17 4 7 -1 12 -14 12 -26 0 -35 -16
-15 -28 15 -8 15 -10 0 -15 -10 -4 -15 -3 -12 2 3 4 -3 16 -14 26 -11 10 -20
15 -20 11 0 -4 -9 -2 -19 3 -20 11 -48 -8 -33 -24 4 -5 1 -5 -6 -1 -10 6 -10
11 -1 22 7 9 8 14 1 14 -6 0 -14 -5 -18 -11 -5 -8 -13 -4 -26 12 -17 21 -19
21 -14 4 6 -19 5 -19 -8 -2 -18 23 -29 22 -17 -1 7 -14 6 -19 -4 -19 -7 0 -11
7 -7 15 4 11 1 13 -8 7 -10 -6 -11 -4 -4 6 16 26 15 52 -1 46 -8 -4 -22 2 -32
11 -16 16 -17 16 -10 0 4 -12 2 -18 -8 -18 -9 0 -12 -6 -8 -17 6 -15 5 -16 -9
-3 -16 14 -15 16 0 29 16 13 16 13 0 8 -9 -3 -19 -1 -21 6 -3 9 -7 9 -19 0 -8
-7 -18 -10 -22 -6 -10 11 -37 12 -30 2 3 -5 -2 -9 -10 -9 -9 0 -16 6 -16 13 0
8 -3 8 -9 -2 -7 -11 -10 -11 -14 3 -4 14 -5 14 -3 -1 1 -10 8 -17 14 -15 7 1
12 -2 12 -8 0 -5 -5 -10 -11 -10 -5 0 -7 -4 -4 -10 3 -6 -1 -7 -10 -3 -13 5
-14 7 -3 14 7 5 10 9 6 10 -25 5 -34 4 -41 -6 -5 -6 -7 -4 -4 5 2 8 10 14 16
13 6 -2 11 1 11 6 0 12 -39 25 -47 17 -4 -3 1 -6 11 -6 9 0 14 -5 11 -10 -4
-7 -13 -7 -24 -1 -10 6 -29 10 -42 10 -13 1 -34 1 -46 1 -13 0 -23 5 -23 10 0
6 -5 10 -10 10 -6 0 -5 -8 2 -19 8 -14 17 -17 28 -11 9 5 22 5 29 1 7 -5 23
-7 35 -5 20 4 20 4 1 -5 -11 -4 -27 -5 -35 -1 -20 10 -42 1 -33 -13 4 -7 -1
-6 -10 2 -14 11 -20 11 -32 1 -10 -9 -15 -9 -15 -1 0 6 5 11 10 11 19 0 10 16
-10 17 -11 1 -18 -2 -16 -6 3 -4 0 -13 -6 -21 -8 -13 -9 -13 -5 0 3 9 -1 24
-9 35 -8 10 -14 14 -14 7 0 -6 -8 -9 -18 -7 -11 2 -19 -3 -19 -11 0 -11 3 -11
15 -1 13 11 14 9 1 -10 -13 -22 -30 -31 -28 -15 4 22 -3 32 -23 31 -13 0 -37
1 -54 3 -22 3 -30 0 -27 -8 6 -16 -14 -27 -23 -13 -5 8 -3 9 6 4 9 -5 11 -4 6
4 -6 9 -11 9 -21 1 -8 -7 -19 -9 -24 -6 -5 4 -12 2 -16 -4 -3 -5 -12 -10 -18
-10 -7 0 -6 4 3 10 12 8 10 10 -8 10 -15 0 -21 -4 -16 -12 4 -7 3 -8 -5 -4 -6
4 -19 2 -27 -5 -12 -10 -17 -10 -27 1 -10 10 -9 12 4 7 13 -4 16 -1 11 16 -3
12 -7 16 -10 9 -3 -10 -7 -10 -20 0 -15 12 -16 11 -3 -4 8 -11 9 -18 3 -18 -6
0 -14 5 -17 10 -4 6 -11 8 -16 4 -5 -3 -7 -10 -4 -15 4 -5 -1 -9 -10 -9 -9 0
-14 -4 -11 -9 4 -5 -3 -7 -14 -4 -11 3 -27 0 -35 -7 -8 -6 -19 -9 -25 -5 -15
9 -1 27 17 21 8 -3 11 -2 8 3 -3 5 -1 12 5 16 5 3 10 1 10 -5 0 -6 8 -10 18
-8 9 2 16 8 15 13 -3 13 -42 15 -49 4 -3 -5 -10 -9 -16 -9 -7 0 -6 5 1 14 8
10 9 16 1 21 -6 4 -9 1 -8 -7z m398 -21 c13 4 13 3 1 -6 -8 -5 -22 -6 -30 -2
-9 5 -23 6 -31 4 -13 -4 -13 -3 -1 6 8 5 22 6 30 2 9 -5 23 -6 31 -4z m76 -13
c-4 -9 -9 -15 -11 -12 -3 3 -3 13 1 22 4 9 9 15 11 12 3 -3 3 -13 -1 -22z
m-344 -36 c-11 -11 -12 -9 -6 6 6 15 4 18 -7 14 -10 -4 -15 1 -15 13 0 18 1
18 20 -1 16 -16 18 -22 8 -32z m687 34 c8 -15 6 -18 -17 -18 -17 1 -26 -4 -24
-12 1 -8 -2 -11 -9 -7 -7 5 -3 15 12 31 27 29 26 29 38 6z m29 5 c-1 -2 3 -11
11 -21 8 -9 11 -19 7 -23 -3 -3 -6 -1 -6 6 0 7 -4 10 -8 7 -4 -2 -9 7 -10 21
-1 15 1 24 4 21 3 -4 4 -8 2 -11z m-168 -7 c0 -5 -5 -10 -11 -10 -5 0 -7 5 -4
10 3 6 8 10 11 10 2 0 4 -4 4 -10z m-686 -50 c-3 -3 -10 3 -15 13 -6 9 -15 17
-21 17 -6 0 -5 -7 3 -17 12 -14 12 -16 0 -8 -11 6 -13 4 -9 -7 4 -8 1 -15 -7
-15 -8 0 -11 7 -7 16 5 14 3 14 -11 2 -26 -21 -20 -5 10 25 l26 26 18 -23 c10
-13 15 -26 13 -29z m956 44 c0 -8 -33 -34 -43 -34 -7 0 -6 4 3 10 13 9 13 10
0 10 -12 0 -12 2 -2 8 12 8 42 12 42 6z m-1050 -37 c0 -5 -7 -6 -16 -3 -9 4
-13 2 -8 -5 7 -11 -12 -29 -31 -29 -5 0 -3 5 5 10 13 8 13 10 1 10 -11 0 -10
3 3 13 22 16 46 18 46 4z m157 7 c-3 -3 -12 -4 -19 -1 -8 3 -5 6 6 6 11 1 17
-2 13 -5z m-32 -24 c-3 -5 -12 -10 -18 -10 -7 0 -6 4 3 10 19 12 23 12 15 0z
m-134 -23 c-10 -9 -11 -8 -5 6 3 10 9 15 12 12 3 -3 0 -11 -7 -18z m254 3 c3
-6 -1 -7 -9 -4 -18 7 -21 14 -7 14 6 0 13 -4 16 -10z m766 -13 c-10 -9 -11 -8
-5 6 3 10 9 15 12 12 3 -3 0 -11 -7 -18z m389 14 c0 -14 -29 -21 -36 -9 -4 6
-3 8 4 4 6 -3 13 -2 17 4 8 12 15 13 15 1z m224 -27 c3 -8 2 -12 -4 -9 -6 3
-10 1 -10 -4 0 -6 -5 -11 -11 -11 -5 0 -7 5 -4 10 3 6 0 10 -7 10 -9 0 -9 3 2
10 21 13 27 12 34 -6z m70 -70 c3 -8 2 -12 -4 -9 -6 3 -10 10 -10 16 0 14 7
11 14 -7z m-2166 -49 c-6 -13 -14 -22 -19 -20 -4 3 -11 -4 -14 -16 -5 -16 -9
-18 -15 -9 -10 16 -1 42 11 35 5 -3 16 3 26 15 23 26 25 25 11 -5z m2556 -33
c3 -5 -1 -9 -9 -9 -8 0 -15 4 -15 9 0 4 4 8 9 8 6 0 12 -4 15 -8z m-2604 -36
c0 -3 -4 -8 -10 -11 -5 -3 -10 -1 -10 4 0 6 5 11 10 11 6 0 10 -2 10 -4z
m2774 -24 c3 -5 -1 -9 -9 -9 -8 0 -12 4 -9 9 3 4 7 8 9 8 2 0 6 -4 9 -8z m56
-21 c0 -4 -6 -8 -13 -8 -8 0 -14 6 -14 13 0 7 6 10 14 7 7 -3 13 -8 13 -12z
m50 -1 c0 13 2 13 9 0 6 -8 8 -17 5 -22 -8 -12 -34 3 -34 21 0 14 2 14 10 1 9
-13 10 -13 10 0z m77 -28 c1 -12 -2 -22 -7 -22 -6 0 -9 3 -9 8 3 19 -2 33 -10
28 -5 -3 -7 -16 -5 -29 4 -20 4 -21 -5 -2 -6 12 -10 15 -10 6 -1 -8 -4 -11 -8
-8 -8 9 28 48 40 44 6 -2 12 -13 14 -25z m-3036 9 c-8 -5 -10 -14 -6 -22 6
-11 5 -11 -5 -2 -14 12 -6 33 13 33 8 0 7 -3 -2 -9z m2955 -33 l19 -23 -25 20
c-14 11 -27 21 -29 22 -2 2 0 3 6 3 5 0 18 -10 29 -22z m178 -30 c-3 -4 -11
-5 -19 -1 -21 7 -19 12 4 10 11 0 18 -5 15 -9z m-3240 -19 c-3 -5 -11 -9 -18
-9 -7 0 -18 -10 -24 -22 -6 -13 -11 -17 -11 -10 -1 7 -5 11 -10 7 -5 -3 -12
-1 -15 4 -3 5 1 11 9 15 8 3 15 1 15 -4 0 -6 8 -2 18 8 11 9 17 20 15 24 -2 4
3 5 11 2 9 -3 13 -10 10 -15z m3421 -19 c3 6 12 7 18 3 7 -4 15 -8 20 -8 11 0
10 -19 -2 -23 -6 -2 -11 2 -11 10 0 10 -3 9 -10 -2 -6 -10 -10 -11 -10 -2 0 6
-3 11 -7 11 -20 -3 -33 2 -33 12 0 8 4 8 14 0 10 -8 16 -9 21 -1z m-38 -35 c0
-8 -4 -12 -9 -9 -5 3 -6 10 -3 15 9 13 12 11 12 -6z m239 -14 c-7 -10 18 -34
26 -25 3 3 9 0 14 -7 5 -9 1 -11 -14 -7 -14 4 -25 0 -31 -9 -6 -12 -9 -9 -9
13 0 29 5 44 14 44 3 0 3 -4 0 -9z m-109 -7 c-3 -3 -12 -4 -19 -1 -8 3 -5 6 6
6 11 1 17 -2 13 -5z m28 -32 c-3 -3 -11 0 -18 7 -9 10 -8 11 6 5 10 -3 15 -9
12 -12z m52 2 c-3 -3 -12 -4 -19 -1 -8 3 -5 6 6 6 11 1 17 -2 13 -5z m47 -30
c3 -8 2 -12 -4 -9 -6 3 -10 10 -10 16 0 14 7 11 14 -7z m92 -17 c1 -8 -4 -14
-12 -14 -9 0 -11 4 -4 12 6 7 6 16 0 23 -7 9 -7 9 2 2 6 -5 13 -16 14 -23z
m-3842 15 c3 -5 -1 -9 -9 -9 -8 0 -15 4 -15 9 0 4 4 8 9 8 6 0 12 -4 15 -8z
m3876 -13 c0 -5 -4 -9 -8 -9 -5 0 -9 7 -9 15 0 8 4 12 9 9 4 -3 8 -9 8 -15z
m84 -87 c3 -5 -1 -9 -9 -9 -8 0 -12 4 -9 9 3 4 7 8 9 8 2 0 6 -4 9 -8z m163
-19 c6 -18 -16 -26 -23 -9 -3 9 -10 16 -16 16 -5 0 -6 -6 -2 -12 5 -9 2 -9 -9
1 -22 18 -22 18 15 17 17 -1 33 -7 35 -13z m28 -3 c3 -5 1 -10 -4 -10 -6 0
-11 5 -11 10 0 6 2 10 4 10 3 0 8 -4 11 -10z m-4309 -9 c-4 -5 0 -12 6 -14 8
-3 6 -6 -5 -6 -10 -1 -16 -5 -12 -10 3 -5 1 -13 -5 -16 -6 -4 -8 -16 -5 -28 5
-20 5 -20 -5 -4 -9 14 -9 22 0 33 7 7 9 14 6 14 -4 0 -2 9 4 20 6 11 13 20 16
20 3 0 3 -4 0 -9z m4296 -18 c-6 -2 -10 -8 -7 -13 7 -11 -22 -7 -32 5 -4 4 -3
5 4 1 6 -3 14 -2 18 4 3 5 12 10 18 9 9 0 8 -2 -1 -6z m148 -95 c0 -6 -6 -5
-15 2 -8 7 -15 14 -15 16 0 2 7 1 15 -2 8 -4 15 -11 15 -16z m55 2 c12 -14 12
-17 -4 -27 -14 -9 -18 -8 -18 3 0 7 4 11 9 8 10 -6 11 10 1 19 -3 4 -11 2 -18
-3 -8 -7 -12 -5 -12 3 0 19 24 17 42 -3z m-4525 0 c0 -5 -4 -10 -10 -10 -5 0
-10 5 -10 10 0 6 5 10 10 10 6 0 10 -4 10 -10z m-40 -20 c0 -5 -2 -10 -4 -10
-3 0 -8 5 -11 10 -3 6 -1 10 4 10 6 0 11 -4 11 -10z m4590 -14 c0 -2 -7 -7
-16 -10 -8 -3 -12 -2 -9 4 6 10 25 14 25 6z m-4590 -20 c0 -3 -4 -8 -10 -11
-5 -3 -10 -1 -10 4 0 6 5 11 10 11 6 0 10 -2 10 -4z m4595 -6 c3 -5 1 -10 -4
-10 -6 0 -11 5 -11 10 0 6 2 10 4 10 3 0 8 -4 11 -10z m165 -101 c0 -5 -4 -9
-8 -9 -5 0 -9 7 -9 15 0 8 4 12 9 9 4 -3 8 -9 8 -15z m120 1 c0 -5 -4 -10 -10
-10 -5 0 -10 5 -10 10 0 6 5 10 10 10 6 0 10 -4 10 -10z m-6 -36 c3 -8 2 -12
-4 -9 -6 3 -10 10 -10 16 0 14 7 11 14 -7z m129 -59 c-6 -17 -23 -20 -23 -5 0
6 5 10 11 10 5 0 7 5 3 12 -4 7 -3 8 4 4 6 -4 9 -13 5 -21z m117 -30 c-7 -9
-15 -13 -19 -10 -3 3 1 10 9 15 21 14 24 12 10 -5z m-5280 -16 c0 -5 4 -8 9
-5 11 7 8 -20 -3 -31 -4 -4 -6 -2 -4 6 2 7 -2 15 -9 18 -12 4 -12 -21 0 -33 4
-4 7 -12 7 -17 0 -6 -9 0 -19 12 -16 19 -18 26 -8 42 13 21 27 25 27 8z m5236
-25 c1 -9 0 -13 -4 -10 -3 4 -7 14 -8 22 -1 9 0 13 4 10 3 -4 7 -14 8 -22z
m44 -19 c0 -5 -5 -3 -10 5 -5 8 -10 20 -10 25 0 6 5 3 10 -5 5 -8 10 -19 10
-25z m-5249 -22 c13 -16 12 -17 -3 -4 -10 7 -18 15 -18 17 0 8 8 3 21 -13z
m-36 -22 c3 -5 2 -12 -3 -15 -5 -3 -9 1 -9 9 0 17 3 19 12 6z m5425 -17 c0 -2
-9 0 -20 6 -11 6 -20 13 -20 16 0 2 9 0 20 -6 11 -6 20 -13 20 -16z m-5475
-31 c3 -9 1 -21 -5 -27 -8 -8 -9 -5 -4 9 7 18 6 18 -9 7 -9 -8 -21 -10 -28 -6
-8 5 -7 9 5 16 9 5 14 13 11 19 -3 5 1 6 9 3 8 -3 17 -13 21 -21z m-32 -110
c-7 -2 -13 -11 -13 -19 0 -16 -16 -19 -25 -5 -6 10 22 31 40 30 6 0 4 -3 -2
-6z m5841 -23 c4 0 4 5 0 11 -4 8 -1 8 12 1 11 -5 27 -8 37 -7 14 3 16 1 7
-10 -7 -8 -9 -20 -5 -27 4 -7 0 -5 -8 4 -8 10 -18 14 -22 10 -5 -4 -4 -1 0 7
6 11 4 13 -8 8 -23 -9 -72 13 -55 25 8 4 17 2 24 -7 6 -8 14 -15 18 -15z
m-5837 -35 c0 -8 -4 -12 -9 -9 -4 3 -8 9 -8 15 0 5 4 9 8 9 5 0 9 -7 9 -15z
m6087 -113 c3 -5 -1 -9 -9 -9 -8 0 -12 4 -9 9 3 4 7 8 9 8 2 0 6 -4 9 -8z
m-6153 -55 c-10 -9 -11 -8 -5 6 3 10 9 15 12 12 3 -3 0 -11 -7 -18z m6179 13
c-8 -5 -19 -10 -25 -10 -5 0 -3 5 5 10 8 5 20 10 25 10 6 0 3 -5 -5 -10z m94
-1 c-4 -8 1 -9 16 -4 16 5 21 4 18 -6 -5 -16 -30 -19 -40 -5 -7 10 -2 26 8 26
3 0 2 -5 -2 -11z m-6284 -62 c0 -2 -10 -12 -22 -23 l-23 -19 19 23 c18 21 26
27 26 19z m-7 -42 c-3 -9 -8 -14 -10 -11 -3 3 -2 9 2 15 9 16 15 13 8 -4z
m6477 -9 c0 -3 -4 -8 -10 -11 -5 -3 -10 -1 -10 4 0 6 5 11 10 11 6 0 10 -2 10
-4z m85 -65 c3 -5 2 -12 -3 -15 -5 -3 -9 1 -9 9 0 17 3 19 12 6z m112 -36
c-15 -16 -19 -13 -11 9 3 9 10 13 15 10 5 -3 3 -11 -4 -19z m-6693 -41 c3 -8
2 -12 -4 -9 -6 3 -10 10 -10 16 0 14 7 11 14 -7z m6766 2 c0 -3 -4 -8 -10 -11
-5 -3 -10 -1 -10 4 0 6 5 11 10 11 6 0 10 -2 10 -4z m114 -72 c6 -15 4 -15
-11 -3 -10 7 -20 15 -22 16 -2 2 3 3 11 3 9 0 19 -7 22 -16z m62 -50 c1 -9 0
-13 -4 -10 -3 4 -7 14 -8 22 -1 9 0 13 4 10 3 -4 7 -14 8 -22z m-6992 -9 c3
-8 0 -14 -6 -12 -6 1 -13 -4 -16 -12 -3 -8 0 -11 7 -7 6 4 11 2 11 -4 0 -7 -7
-9 -16 -6 -14 5 -15 4 -4 -9 7 -8 8 -15 2 -15 -18 0 -23 32 -7 50 8 9 12 20 8
23 -3 4 -2 7 4 7 6 0 13 -7 17 -15z m7116 -15 c0 13 1 13 10 0 5 -8 10 -11 10
-7 0 5 5 5 10 2 6 -4 8 -11 4 -16 -4 -6 -11 -6 -20 2 -10 8 -14 8 -14 0 0 -21
-16 -11 -17 11 -2 18 0 20 7 8 9 -13 10 -13 10 0z m86 -48 c2 -10 -2 -10 -15
2 -10 9 -21 13 -26 9 -4 -5 -2 3 5 16 12 23 13 23 23 5 6 -10 12 -25 13 -32z
m-7220 -33 c0 -9 -5 -15 -11 -12 -7 2 -12 10 -12 17 0 7 5 13 12 13 6 0 11 -8
11 -18z m7239 1 c3 -6 -1 -7 -9 -4 -18 7 -21 14 -7 14 6 0 13 -4 16 -10z m95
-26 c39 -2 42 -3 35 -13 -13 -21 -75 -2 -75 23 0 7 3 7 8 1 4 -5 18 -11 32
-11z m-7275 -15 c3 -3 -6 -5 -19 -5 -14 1 -28 4 -31 7 -3 3 6 5 19 5 14 -1 28
-4 31 -7z m7195 1 c0 -5 -2 -10 -4 -10 -3 0 -8 5 -11 10 -3 6 -1 10 4 10 6 0
11 -4 11 -10z m127 -26 c-3 -3 -12 -4 -19 -1 -8 3 -5 6 6 6 11 1 17 -2 13 -5z
m-7367 -34 c0 -5 -4 -10 -10 -10 -5 0 -10 5 -10 10 0 6 5 10 10 10 6 0 10 -4
10 -10z m7400 0 c0 -5 -5 -10 -11 -10 -5 0 -7 5 -4 10 3 6 8 10 11 10 2 0 4
-4 4 -10z m-7430 -20 c0 -5 -5 -10 -11 -10 -5 0 -7 5 -4 10 3 6 8 10 11 10 2
0 4 -4 4 -10z m0 -41 c11 -19 10 -20 -10 -9 -11 6 -18 15 -15 21 9 13 13 11
25 -12z m0 -114 c-14 -17 -30 -20 -30 -6 0 5 8 12 18 14 9 3 19 5 21 6 2 0 -2
-6 -9 -14z m7787 -11 c-3 -3 -12 -4 -19 -1 -8 3 -5 6 6 6 11 1 17 -2 13 -5z
m39 -22 c1 -7 0 -8 -2 -3 -3 6 -12 7 -21 4 -11 -4 -14 -3 -9 6 9 14 29 10 32
-7z m82 -20 c5 2 10 0 11 -4 1 -9 -8 -10 -31 -2 -10 3 -18 10 -18 16 0 7 5 6
14 -1 8 -6 18 -10 24 -9z m51 -40 c-1 -15 -2 -15 -6 1 -2 9 -9 14 -15 11 -7
-4 -8 -2 -4 5 10 15 26 4 25 -17z m49 -26 c-2 -1 -12 -8 -22 -16 -18 -14 -18
-14 -6 7 8 12 18 19 23 16 4 -3 7 -6 5 -7z m-8004 -48 c-3 -4 -9 -8 -15 -8 -5
0 -9 4 -9 8 0 5 7 9 15 9 8 0 12 -4 9 -9z m6 -23 c0 -7 -30 -13 -34 -7 -3 4 4
9 15 9 10 1 19 0 19 -2z m-10 -40 c7 -9 10 -18 6 -22 -3 -3 -6 -1 -6 6 0 7 -5
9 -12 5 -6 -4 -8 -3 -4 4 3 5 0 13 -6 15 -8 4 -9 6 -2 6 6 1 17 -6 24 -14z
m8160 -15 c7 -13 7 -21 -2 -26 -7 -4 -8 -3 -4 4 6 11 -5 16 -25 14 -4 -1 -5 7
-2 18 6 22 18 18 33 -10z m66 -58 c-2 -8 -11 -19 -22 -25 -10 -5 -16 -6 -12
-2 4 5 2 15 -4 24 -10 13 -10 14 2 4 21 -19 32 -15 18 6 -9 16 -16 18 -32 10
-20 -10 -20 -9 -2 5 21 17 55 3 52 -22z m70 -69 c-2 -9 -9 -19 -17 -21 -11 -3
-11 -1 1 7 13 10 13 11 0 11 -13 0 -13 1 0 10 19 12 19 13 16 -7z m14 -33 c0
-5 -5 -10 -11 -10 -5 0 -7 5 -4 10 3 6 8 10 11 10 2 0 4 -4 4 -10z m-8310 -20
c0 -5 -7 -7 -15 -4 -8 4 -15 8 -15 10 0 2 7 4 15 4 8 0 15 -4 15 -10z m8311
-23 c-10 -9 -11 -8 -5 6 3 10 9 15 12 12 3 -3 0 -11 -7 -18z m-8307 -39 c-3
-4 -9 -8 -15 -8 -5 0 -9 4 -9 8 0 5 7 9 15 9 8 0 12 -4 9 -9z m21 -58 c3 -5 1
-10 -4 -10 -6 0 -11 5 -11 10 0 6 2 10 4 10 3 0 8 -4 11 -10z m8468 -97 c-3
-7 -9 -13 -15 -13 -5 0 -7 4 -3 9 3 5 1 12 -4 16 -6 3 -7 13 -4 23 5 14 3 15
-8 5 -7 -7 -17 -13 -23 -13 -5 0 -1 7 10 14 17 13 21 13 35 -6 10 -12 15 -28
12 -35z m32 -91 c-3 -3 -11 0 -18 7 -9 10 -8 11 6 5 10 -3 15 -9 12 -12z
m-8495 -46 c0 -2 3 -12 7 -22 5 -14 3 -16 -12 -10 -18 6 -18 6 -2 -11 10 -11
13 -24 8 -32 -6 -9 -11 -10 -15 -2 -4 6 -2 11 4 11 7 0 5 7 -4 16 -21 21 -20
38 2 30 14 -5 14 -4 -2 9 -17 13 -18 15 -3 15 9 0 17 -2 17 -4z m35 -46 c3 -5
1 -10 -4 -10 -6 0 -11 5 -11 10 0 6 2 10 4 10 3 0 8 -4 11 -10z m8565 -50 c6
-11 8 -20 6 -20 -3 0 -10 9 -16 20 -6 11 -8 20 -6 20 3 0 10 -9 16 -20z
m-8527 -65 c-3 -9 -8 -14 -10 -11 -3 3 -2 9 2 15 9 16 15 13 8 -4z m4 -81 c-3
-3 -12 -4 -19 -1 -8 3 -5 6 6 6 11 1 17 -2 13 -5z m-20 -28 c0 -8 -6 -12 -12
-10 -6 3 -12 11 -12 18 0 8 6 12 12 10 6 -3 12 -11 12 -18z m19 -36 c0 -12 -4
-16 -9 -11 -5 5 -6 14 -3 20 10 15 12 14 12 -9z m-4 -52 c-7 -7 -12 -20 -12
-30 0 -10 -4 -18 -9 -18 -14 0 -8 34 9 47 19 16 28 17 12 1z m58 -184 c0 -8
-19 -13 -24 -6 -3 5 1 9 9 9 8 0 15 -2 15 -3z m8525 -4 c3 -5 1 -10 -4 -10 -6
0 -11 5 -11 10 0 6 2 10 4 10 3 0 8 -4 11 -10z m-8525 -33 c0 -1 -11 -2 -24
-2 -14 0 -22 5 -19 12 4 9 10 10 24 2 10 -5 19 -11 19 -12z m27 -2 c0 -8 -4
-15 -9 -15 -10 0 -11 14 -1 23 9 10 10 9 10 -8z m13 -79 c0 -3 -4 -8 -10 -11
-5 -3 -10 -1 -10 4 0 6 5 11 10 11 6 0 10 -2 10 -4z m4 -145 c-2 -3 -12 3 -22
13 -16 17 -16 18 5 5 12 -7 20 -15 17 -18z m86 -77 c0 -8 -19 -13 -24 -6 -3 5
1 9 9 9 8 0 15 -2 15 -3z m-20 -56 c0 -5 4 -7 8 -4 5 3 9 -1 9 -9 0 -8 -4 -12
-9 -9 -5 4 -8 -1 -6 -9 2 -9 0 -16 -4 -16 -24 -2 -28 0 -21 12 11 17 11 30 0
45 -7 9 -6 11 7 6 9 -3 16 -10 16 -16z m33 -111 c-4 -7 1 -8 13 -4 16 6 17 5
4 -5 -9 -7 -14 -22 -12 -33 2 -11 0 -16 -4 -12 -5 5 -10 13 -10 18 -1 5 -3 10
-4 12 -1 1 -3 14 -4 29 -2 22 0 26 10 17 8 -6 11 -16 7 -22z m8182 3 c-3 -5
-12 -10 -18 -10 -7 0 -6 4 3 10 19 12 23 12 15 0z m-8118 -45 c0 -8 -4 -12 -9
-9 -5 3 -6 10 -3 15 9 13 12 11 12 -6z m18 -43 c-3 -3 -11 0 -18 7 -9 10 -8
11 6 5 10 -3 15 -9 12 -12z m8035 8 c-8 -5 -19 -10 -25 -10 -5 0 -3 5 5 10 8
5 20 10 25 10 6 0 3 -5 -5 -10z m-40 -20 c0 -5 -5 -10 -11 -10 -5 0 -7 5 -4
10 3 6 8 10 11 10 2 0 4 -4 4 -10z m-24 -36 c-5 -13 -2 -15 14 -11 15 4 18 2
11 -6 -9 -12 -11 -18 -11 -36 0 -4 -9 -8 -20 -7 -11 0 -19 6 -18 11 2 6 9 9
16 9 14 -2 16 12 2 21 -9 5 -3 35 7 35 3 0 2 -7 -1 -16z m-34 -26 c-8 -8 -9
-4 -5 13 4 13 8 18 11 10 2 -7 -1 -18 -6 -23z m-17 -18 c3 -5 1 -10 -4 -10 -6
0 -11 5 -11 10 0 6 2 10 4 10 3 0 8 -4 11 -10z m-61 -39 c3 -5 -1 -11 -9 -14
-9 -4 -12 -1 -8 9 6 16 10 17 17 5z m-7777 -16 c0 -8 -4 -12 -9 -9 -5 3 -6 10
-3 15 9 13 12 11 12 -6z m7738 -5 c-3 -5 -12 -10 -18 -10 -7 0 -6 4 3 10 19
12 23 12 15 0z m-98 -100 c0 -19 -4 -27 -10 -21 -5 5 -6 18 -2 30 9 29 12 26
12 -9z m-137 -115 c0 -8 -4 -15 -10 -15 -5 0 -7 7 -4 15 4 8 8 15 10 15 2 0 4
-7 4 -15z m-5 -45 c-3 -5 -13 -6 -21 -3 -12 4 -13 8 -3 14 15 9 32 2 24 -11z
m-7294 -3 c-6 -8 -7 -18 -3 -22 4 -5 1 -5 -5 -1 -7 4 -13 3 -13 -2 0 -4 15
-16 33 -25 17 -8 28 -16 22 -16 -16 -1 -75 38 -75 49 0 6 4 9 9 6 5 -3 14 1
21 9 7 8 15 15 17 15 3 0 0 -6 -6 -13z m7196 -6 c0 -11 -5 -18 -9 -15 -4 3 -5
11 -1 19 7 21 12 19 10 -4z m-33 -90 c3 -5 -2 -8 -12 -7 -9 0 -16 -5 -14 -12
2 -10 -4 -12 -20 -7 -33 10 -44 23 -15 18 14 -3 28 0 31 6 9 13 23 14 30 2z
m-124 -31 c0 -5 -2 -10 -4 -10 -3 0 -8 5 -11 10 -3 6 -1 10 4 10 6 0 11 -4 11
-10z m-6959 -23 c-10 -9 -11 -8 -5 6 3 10 9 15 12 12 3 -3 0 -11 -7 -18z
m6944 -7 c-3 -5 -12 -10 -18 -10 -7 0 -6 4 3 10 19 12 23 12 15 0z m-6902 -37
c-5 -13 -2 -15 11 -10 10 4 15 3 11 -3 -7 -11 25 -29 42 -23 14 5 27 -14 14
-22 -11 -6 -91 42 -91 55 0 7 11 20 16 20 2 0 0 -8 -3 -17z m6761 -45 c-3 -4
-9 -8 -15 -8 -5 0 -9 4 -9 8 0 5 7 9 15 9 8 0 12 -4 9 -9z m-6644 -12 c0 -2
-7 -7 -16 -10 -8 -3 -12 -2 -9 4 6 10 25 14 25 6z m6604 -27 c-2 -4 0 -10 6
-14 5 -3 10 -1 10 4 0 6 5 11 11 11 8 0 7 -5 -1 -15 -7 -9 -15 -13 -18 -10 -3
3 -11 0 -19 -6 -7 -6 -13 -8 -13 -3 0 5 -5 2 -10 -6 -8 -12 -10 -12 -10 -1 0
11 -5 10 -20 -4 -11 -10 -20 -15 -20 -12 0 4 0 9 0 12 0 3 3 5 6 4 4 0 10 4
14 11 4 6 16 13 26 14 10 2 18 8 17 13 -1 5 4 10 12 10 8 0 12 -4 9 -8z m-129
-40 c-4 -5 -12 -9 -18 -8 -9 0 -8 2 1 6 6 2 9 10 6 15 -4 7 -2 8 5 4 6 -4 9
-12 6 -17z m-65 -19 c8 -5 11 -10 5 -10 -5 0 -17 5 -25 10 -8 5 -10 10 -5 10
6 0 17 -5 25 -10z m-75 -60 c-3 -5 -12 -10 -18 -10 -7 0 -6 4 3 10 19 12 23
12 15 0z m-6135 -82 c0 -6 -6 -5 -15 2 -8 7 -15 14 -15 16 0 2 7 1 15 -2 8 -4
15 -11 15 -16z m6036 10 c5 4 2 -1 -6 -11 -12 -17 -15 -17 -25 -3 -9 12 -14
13 -23 4 -9 -9 -15 -9 -24 1 -11 10 -10 11 3 6 10 -4 20 -2 24 4 4 7 12 8 24
1 10 -5 22 -6 27 -2z m-130 -54 c-4 -9 -9 -14 -13 -11 -3 4 -11 3 -17 -3 -8
-6 -12 -2 -13 13 -2 17 0 19 7 7 9 -13 10 -13 10 0 0 13 1 13 10 0 8 -13 10
-12 10 4 0 11 3 17 6 13 4 -3 4 -14 0 -23z m-5742 8 c3 -5 -1 -9 -9 -9 -8 0
-12 4 -9 9 3 4 7 8 9 8 2 0 6 -4 9 -8z m5657 -5 c-6 -8 -7 -18 -3 -22 4 -5 1
-5 -6 -1 -10 6 -10 11 -1 22 6 8 14 14 16 14 3 0 0 -6 -6 -13z m29 -15 c0 -13
-29 -48 -30 -35 0 6 5 15 10 18 6 4 8 11 5 16 -4 5 -1 9 4 9 6 0 11 -4 11 -8z
m-5666 -17 c3 -8 1 -15 -4 -15 -6 0 -10 7 -10 15 0 8 2 15 4 15 2 0 6 -7 10
-15z m5587 -8 c-10 -9 -11 -8 -5 6 3 10 9 15 12 12 3 -3 0 -11 -7 -18z m-116
-38 c-4 -5 -12 -9 -18 -8 -9 0 -8 2 1 6 6 2 9 10 6 15 -4 7 -2 8 5 4 6 -4 9
-12 6 -17z m90 10 c11 -16 1 -19 -13 -3 -7 8 -8 14 -3 14 5 0 13 -5 16 -11z
m-145 -3 c0 -2 -7 -7 -16 -10 -8 -3 -12 -2 -9 4 6 10 25 14 25 6z m-126 -24
c3 -5 -1 -9 -9 -9 -8 0 -12 4 -9 9 3 4 7 8 9 8 2 0 6 -4 9 -8z m69 -58 c-6
-17 -51 -35 -58 -23 -4 5 -10 7 -15 4 -4 -3 -10 1 -13 8 -3 7 3 14 14 15 11 1
26 2 34 3 9 1 18 14 22 28 l7 26 6 -25 c4 -14 5 -30 3 -36z m-5169 -16 c-3 -4
-11 -5 -19 -1 -21 7 -19 12 4 10 11 0 18 -5 15 -9z m4966 -2 c0 -3 -4 -8 -10
-11 -5 -3 -10 -1 -10 4 0 6 5 11 10 11 6 0 10 -2 10 -4z m40 -6 c0 -5 -2 -10
-4 -10 -3 0 -8 5 -11 10 -3 6 -1 10 4 10 6 0 11 -4 11 -10z m-4889 -14 c15 9
10 -6 -6 -23 -9 -8 -19 -12 -23 -8 -4 4 -2 10 5 12 7 2 11 10 9 16 -1 7 -1 9
1 4 3 -4 9 -5 14 -1z m64 -14 c-3 -3 -11 0 -18 7 -9 10 -8 11 6 5 10 -3 15 -9
12 -12z m4814 9 c7 -5 9 -11 5 -14 -5 -3 -15 1 -22 9 -14 16 -5 18 17 5z
m-4552 -93 c2 -17 0 -19 -7 -8 -5 8 -6 18 -4 22 8 12 10 10 11 -14z m4146 -11
c3 -8 -1 -14 -8 -14 -7 0 -11 6 -8 14 3 7 6 13 8 13 2 0 5 -6 8 -13z m-199
-19 c-4 -5 -8 -7 -12 -4 -3 3 -11 -2 -19 -12 -13 -15 -13 -15 -4 4 5 11 17 21
25 21 8 0 13 -4 10 -9z m52 -10 c-2 -24 -21 -37 -21 -15 0 10 15 35 22 37 1 0
1 -10 -1 -22z m-3945 -16 c-7 -2 -18 1 -23 6 -8 8 -4 9 13 5 13 -4 18 -8 10
-11z m3816 -20 c0 -10 -6 -19 -13 -19 -9 0 -9 5 -1 19 7 10 13 18 14 18 1 0 1
-8 0 -18z m-3807 4 c0 -2 -7 -7 -16 -10 -8 -3 -12 -2 -9 4 6 10 25 14 25 6z
m220 -31 c14 -19 14 -19 -2 -6 -10 7 -18 18 -18 24 0 6 1 8 3 6 1 -2 9 -13 17
-24z m3398 6 c-7 -9 -13 -18 -15 -20 -1 -2 -1 5 0 16 0 11 7 20 14 20 10 0 10
-4 1 -16z m-320 -16 c-3 -3 -9 2 -12 12 -6 14 -5 15 5 6 7 -7 10 -15 7 -18z
m175 4 c-8 -8 -13 -7 -18 2 -5 8 -4 10 3 5 7 -4 12 -2 12 5 0 7 3 9 7 6 4 -4
2 -12 -4 -18z m192 11 c3 -6 -1 -7 -9 -4 -18 7 -21 14 -7 14 6 0 13 -4 16 -10z
m35 6 c0 -3 -4 -8 -10 -11 -5 -3 -10 -1 -10 4 0 6 5 11 10 11 6 0 10 -2 10 -4z
m-3382 -41 c-3 -3 -9 2 -12 12 -6 14 -5 15 5 6 7 -7 10 -15 7 -18z m2819 10
c0 -8 -4 -12 -9 -9 -5 3 -6 10 -3 15 9 13 12 11 12 -6z m120 -27 c4 -28 -6
-18 -12 12 -2 12 -1 20 2 16 4 -4 8 -16 10 -28z m190 13 c0 -11 -4 -19 -7 -18
-3 1 -15 -4 -27 -11 -13 -7 -23 -9 -23 -4 0 5 12 14 26 20 14 7 22 17 19 22
-3 6 -2 10 4 10 5 0 9 -9 8 -19z m-3170 -11 c-1 -11 -5 -20 -9 -20 -3 0 -6 9
-5 20 1 11 5 20 9 20 3 0 6 -9 5 -20z m104 3 c13 -16 12 -17 -3 -4 -17 13 -22
21 -14 21 2 0 10 -8 17 -17z m2854 -24 c-3 -4 2 -10 11 -13 8 -3 12 -10 9 -16
-8 -13 -22 -5 -34 19 -7 13 -6 18 4 18 8 0 12 -4 10 -8z m-2470 -19 c3 -6 -1
-7 -9 -4 -18 7 -21 14 -7 14 6 0 13 -4 16 -10z m1914 7 c-2 -1 -13 -9 -24 -17
-19 -14 -19 -14 -6 3 7 9 18 17 24 17 6 0 8 -1 6 -3z m138 -19 c-3 -8 -6 -5
-6 6 -1 11 2 17 5 13 3 -3 4 -12 1 -19z m-2220 -20 c-3 -8 -6 -5 -6 6 -1 11 2
17 5 13 3 -3 4 -12 1 -19z m148 4 c-3 -3 -11 0 -18 7 -9 10 -8 11 6 5 10 -3
15 -9 12 -12z m75 13 c0 -7 -30 -13 -34 -7 -3 4 4 9 15 9 10 1 19 0 19 -2z
m1451 -12 c13 -16 12 -17 -3 -4 -10 7 -18 15 -18 17 0 8 8 3 21 -13z m304 7
c-3 -5 -14 -10 -23 -9 -14 0 -13 2 3 9 27 11 27 11 20 0z m62 -27 c-11 -10
-26 8 -20 23 5 15 7 14 15 -1 6 -9 7 -19 5 -22z m83 27 c0 -5 -4 -10 -10 -10
-5 0 -10 5 -10 10 0 6 5 10 10 10 6 0 10 -4 10 -10z m-484 -19 c0 -10 -5 -17
-11 -15 -6 3 -11 -5 -12 -17 -2 -16 1 -18 11 -10 10 8 16 7 25 -3 10 -12 9
-14 -6 -11 -10 1 -26 -2 -36 -7 -12 -6 -23 -5 -33 3 -8 6 -14 7 -14 2 0 -5
-13 -9 -28 -9 -20 0 -28 5 -29 17 -1 11 5 17 17 16 10 -1 16 -5 13 -10 -7 -12
40 -4 50 8 5 6 7 3 3 -7 -3 -10 -1 -18 4 -18 9 0 14 24 8 34 -3 3 32 46 36 46
1 0 2 -8 2 -19z m124 9 c0 -5 -5 -10 -11 -10 -5 0 -7 5 -4 10 3 6 8 10 11 10
2 0 4 -4 4 -10z m58 -1 c-2 -6 7 -13 20 -15 16 -3 21 0 16 8 -4 7 -3 8 4 4 7
-4 12 -2 12 5 0 7 3 10 6 6 3 -3 -5 -22 -19 -42 -23 -34 -26 -35 -35 -19 -6
11 -10 23 -10 29 0 5 -5 11 -11 13 -7 2 -8 -3 -4 -14 4 -11 3 -15 -5 -10 -6 3
-15 -1 -20 -11 -9 -14 -13 -15 -26 -4 -13 11 -16 11 -17 0 0 -12 -1 -12 -6 0
-5 11 -7 11 -14 0 -7 -11 -9 -10 -9 5 0 12 5 16 15 12 8 -3 15 -1 15 4 0 6 10
8 22 7 12 -2 30 5 40 15 21 21 29 23 26 7z m-1283 -17 c-3 -3 -11 0 -18 7 -9
10 -8 11 6 5 10 -3 15 -9 12 -12z m996 -5 c-10 -9 -11 -8 -5 6 3 10 9 15 12
12 3 -3 0 -11 -7 -18z m40 6 c13 -16 12 -17 -3 -4 -10 7 -18 15 -18 17 0 8 8
3 21 -13z m144 -1 c-3 -3 -11 0 -18 7 -9 10 -8 11 6 5 10 -3 15 -9 12 -12z
m510 8 c-3 -5 -11 -10 -16 -10 -6 0 -7 5 -4 10 3 6 11 10 16 10 6 0 7 -4 4
-10z m-1860 -20 c-4 -6 -2 -17 4 -24 9 -10 8 -15 -2 -19 -9 -3 -12 3 -11 22 2
30 2 31 10 31 3 0 2 -5 -1 -10z m75 0 c0 -5 -8 -10 -17 -10 -15 0 -16 2 -3 10
19 12 20 12 20 0z m35 1 c3 -5 2 -12 -3 -15 -5 -3 -9 1 -9 9 0 17 3 19 12 6z
m-78 -16 c0 -8 -4 -12 -9 -9 -4 3 -8 9 -8 15 0 5 4 9 8 9 5 0 9 -7 9 -15z
m1027 -21 c3 -8 2 -12 -4 -9 -6 3 -10 10 -10 16 0 14 7 11 14 -7z m-704 -30
c0 -3 -7 -1 -15 6 -8 7 -15 17 -15 22 0 5 7 3 15 -6 8 -8 15 -18 15 -22z m491
9 c-8 -15 -10 -15 -11 -2 0 17 10 32 18 25 2 -3 -1 -13 -7 -23z m-531 2 c0
-12 -19 -12 -23 0 -4 9 -1 12 9 8 7 -3 14 -7 14 -8z"/>
<path d="M7655 2650 c-4 -6 -11 -8 -16 -5 -5 4 -9 1 -9 -5 0 -6 -5 -8 -12 -4
-7 4 -8 3 -4 -4 5 -9 13 -9 26 -2 19 10 36 30 26 30 -3 0 -8 -5 -11 -10z"/>
<path d="M5435 2260 c-3 -5 1 -10 10 -10 9 0 13 5 10 10 -3 6 -8 10 -10 10 -2
0 -7 -4 -10 -10z"/>
<path d="M5356 2248 c3 -5 10 -6 15 -3 13 9 11 12 -6 12 -8 0 -12 -4 -9 -9z"/>
<path d="M2776 8014 c-23 -23 -20 -30 4 -9 11 10 20 20 20 22 0 7 -9 2 -24
-13z"/>
<path d="M2857 8023 c-4 -3 -7 -11 -7 -17 0 -6 5 -5 12 2 6 6 9 14 7 17 -3 3
-9 2 -12 -2z"/>
<path d="M2810 8016 c0 -2 7 -7 16 -10 8 -3 12 -2 9 4 -6 10 -25 14 -25 6z"/>
<path d="M3561 7994 c0 -11 3 -14 6 -6 3 7 2 16 -1 19 -3 4 -6 -2 -5 -13z"/>
<path d="M3597 7993 c3 -7 6 -13 8 -13 2 0 5 6 8 13 3 8 -1 14 -8 14 -7 0 -11
-6 -8 -14z"/>
<path d="M3580 7985 c0 -20 38 -67 44 -56 6 10 20 9 71 -2 6 -2 15 -6 21 -10
7 -4 17 0 24 8 10 12 8 13 -10 10 -16 -3 -20 0 -16 10 3 8 1 17 -5 20 -5 4 -9
3 -8 -2 4 -26 -2 -33 -20 -24 -10 6 -21 7 -25 4 -3 -3 -6 -1 -6 6 0 8 7 10 20
6 11 -3 20 -2 20 3 0 5 -6 9 -12 9 -23 1 -43 8 -51 18 -5 6 -7 4 -4 -5 2 -8
10 -14 16 -12 7 1 10 -2 6 -8 -7 -11 -44 4 -57 24 -5 6 -8 7 -8 1z"/>
<path d="M2416 7958 c3 -4 9 -8 15 -8 5 0 9 4 9 8 0 5 -7 9 -15 9 -8 0 -12 -4
-9 -9z"/>
<path d="M3550 7966 c0 -2 7 -7 16 -10 8 -3 12 -2 9 4 -6 10 -25 14 -25 6z"/>
<path d="M3767 7939 c7 -7 15 -10 18 -7 3 3 -2 9 -12 12 -14 6 -15 5 -6 -5z"/>
<path d="M2379 7931 c7 -5 11 -14 7 -20 -5 -7 -1 -9 8 -5 20 8 20 20 0 28 -23
9 -31 7 -15 -3z"/>
<path d="M2231 7913 c3 -20 -3 -23 -23 -12 -23 12 -23 12 -3 -8 11 -11 22 -16
23 -11 2 4 7 6 12 3 4 -3 14 3 21 12 10 12 10 14 2 9 -7 -4 -13 -2 -13 3 0 6
-4 11 -10 11 -5 0 -9 -3 -9 -7z"/>
<path d="M3978 7908 c14 -17 52 -21 52 -5 0 5 -7 6 -16 3 -9 -4 -24 -1 -33 6
-14 11 -14 11 -3 -4z"/>
<path d="M4180 7876 c0 -2 7 -7 16 -10 8 -3 12 -2 9 4 -6 10 -25 14 -25 6z"/>
<path d="M4196 7841 c-3 -5 1 -14 8 -20 12 -10 13 -8 9 8 -6 23 -9 25 -17 12z"/>
<path d="M2076 7825 c5 -11 2 -14 -12 -9 -11 4 -16 4 -13 0 4 -4 16 -8 28 -11
18 -3 20 -1 11 16 -13 23 -22 26 -14 4z"/>
<path d="M4416 7821 c8 -8 43 -8 38 0 -2 4 -13 7 -24 6 -10 -1 -17 -3 -14 -6z"/>
<path d="M1996 7805 c-3 -8 -1 -15 4 -15 6 0 10 7 10 15 0 8 -2 15 -4 15 -2 0
-6 -7 -10 -15z"/>
<path d="M4386 7812 c-3 -5 1 -9 9 -9 8 0 12 4 9 9 -3 4 -7 8 -9 8 -2 0 -6 -4
-9 -8z"/>
<path d="M4350 7800 c0 -5 5 -10 10 -10 6 0 10 5 10 10 0 6 -4 10 -10 10 -5 0
-10 -4 -10 -10z"/>
<path d="M4576 7787 c3 -10 9 -15 12 -12 3 3 0 11 -7 18 -10 9 -11 8 -5 -6z"/>
<path d="M4535 7761 c-3 -6 4 -9 15 -8 11 1 20 5 20 9 0 11 -28 10 -35 -1z"/>
<path d="M4590 7750 c-9 -6 -10 -10 -3 -10 6 0 15 5 18 10 8 12 4 12 -15 0z"/>
<path d="M1913 7735 c0 -8 4 -12 9 -9 11 7 10 -3 -3 -29 -10 -21 -10 -21 5 -3
19 24 20 30 3 45 -10 8 -14 7 -14 -4z"/>
<path d="M4605 7729 c-4 -6 -4 -13 -1 -16 3 -4 6 0 6 8 0 11 2 11 10 -1 8 -13
10 -12 10 3 0 19 -15 23 -25 6z"/>
<path d="M4650 7734 c0 -10 36 -54 45 -54 2 0 1 9 -3 19 -4 11 -11 20 -16 20
-5 -1 -13 5 -17 13 -5 7 -9 8 -9 2z"/>
<path d="M4795 7721 c-3 -5 -2 -12 3 -15 5 -3 9 1 9 9 0 17 -3 19 -12 6z"/>
<path d="M1837 7677 c3 -5 -1 -13 -8 -18 -10 -6 -10 -9 -2 -9 7 0 17 8 22 18
7 14 6 19 -4 19 -8 0 -11 -5 -8 -10z"/>
<path d="M4930 7661 c0 -6 4 -13 10 -16 6 -3 7 1 4 9 -7 18 -14 21 -14 7z"/>
<path d="M4990 7619 c-7 -11 -9 -23 -6 -27 3 -3 6 0 6 7 0 7 7 11 15 8 8 -4
17 -2 20 4 4 5 1 8 -7 7 -7 -2 -12 3 -10 10 3 19 -6 14 -18 -9z"/>
<path d="M1745 7600 c-3 -6 1 -7 9 -4 18 7 21 14 7 14 -6 0 -13 -4 -16 -10z"/>
<path d="M5193 7554 c0 -9 4 -11 12 -4 7 5 14 9 16 7 2 -1 3 0 1 2 -7 11 -29
7 -29 -5z"/>
<path d="M1575 7441 c-3 -5 -2 -12 3 -15 5 -3 9 1 9 9 0 17 -3 19 -12 6z"/>
<path d="M5653 7395 c0 -8 4 -12 9 -9 5 3 6 10 3 15 -9 13 -12 11 -12 -6z"/>
<path d="M1573 7371 c-10 -16 -9 -19 5 -17 9 2 15 6 14 11 -2 4 2 12 10 16 10
7 10 9 -2 9 -8 0 -21 -9 -27 -19z"/>
<path d="M1510 7359 c0 -5 5 -7 10 -4 6 3 10 8 10 11 0 2 -4 4 -10 4 -5 0 -10
-5 -10 -11z"/>
<path d="M5635 7360 c3 -5 8 -10 11 -10 2 0 4 5 4 10 0 6 -5 10 -11 10 -5 0
-7 -4 -4 -10z"/>
<path d="M5858 7268 c5 -5 16 -8 23 -6 8 3 3 7 -10 11 -17 4 -21 3 -13 -5z"/>
<path d="M1397 7153 c-4 -3 -1 -13 6 -21 10 -13 8 -14 -13 -8 -21 6 -22 5 -7
-4 22 -14 42 -3 28 14 -6 7 -8 16 -4 19 3 4 4 7 1 7 -2 0 -8 -3 -11 -7z"/>
<path d="M6082 7134 c-7 -8 -10 -19 -6 -26 5 -7 10 -3 16 12 10 28 7 33 -10
14z"/>
<path d="M6105 7119 c-11 -16 -1 -19 13 -3 7 8 8 14 3 14 -5 0 -13 -5 -16 -11z"/>
<path d="M6246 7078 c3 -5 10 -6 15 -3 13 9 11 12 -6 12 -8 0 -12 -4 -9 -9z"/>
<path d="M6187 7053 c3 -7 9 -11 13 -8 4 3 13 -2 20 -10 17 -20 27 -19 39 4 9
16 8 18 -9 14 -11 -3 -20 -1 -20 5 0 5 -11 9 -24 8 -14 0 -22 -6 -19 -13z m57
-22 c-2 -3 -12 3 -22 13 -16 17 -16 18 5 5 12 -7 20 -15 17 -18z"/>
<path d="M6271 7032 c-14 -27 2 -46 18 -21 9 16 10 19 0 13 -9 -5 -10 -2 -6 9
9 23 0 22 -12 -1z"/>
<path d="M6350 7000 c0 -5 5 -10 10 -10 6 0 10 5 10 10 0 6 -4 10 -10 10 -5 0
-10 -4 -10 -10z"/>
<path d="M6390 6980 c8 -5 20 -10 25 -10 6 0 3 5 -5 10 -8 5 -19 10 -25 10 -5
0 -3 -5 5 -10z"/>
<path d="M6587 6864 c-9 -10 13 -45 24 -39 5 4 7 10 4 15 -3 4 1 11 7 14 7 3
2 3 -11 0 -16 -4 -21 -3 -17 5 8 12 3 15 -7 5z"/>
<path d="M1194 6836 c1 -8 5 -18 8 -22 4 -3 5 1 4 10 -1 8 -5 18 -8 22 -4 3
-5 -1 -4 -10z"/>
<path d="M6652 6840 c2 -8 -3 -14 -9 -12 -7 1 -13 -2 -13 -8 0 -8 14 -14 23
-8 1 1 13 -4 27 -12 14 -7 22 -9 18 -5 -4 5 -3 14 3 22 9 9 8 13 0 13 -6 0
-11 -5 -11 -11 0 -6 -6 -9 -12 -6 -7 2 -13 9 -13 15 0 5 -4 14 -8 19 -5 4 -7
1 -5 -7z"/>
<path d="M1222 6801 c2 -7 7 -12 11 -12 12 1 9 15 -3 20 -7 2 -11 -2 -8 -8z"/>
<path d="M6740 6799 c0 -9 31 -21 38 -14 3 3 0 5 -7 5 -7 0 -10 4 -7 8 3 5 -1
9 -9 9 -8 0 -15 -4 -15 -8z"/>
<path d="M6790 6800 c0 -5 5 -10 11 -10 5 0 7 5 4 10 -3 6 -8 10 -11 10 -2 0
-4 -4 -4 -10z"/>
<path d="M6895 6680 c3 -5 8 -10 11 -10 2 0 4 5 4 10 0 6 -5 10 -11 10 -5 0
-7 -4 -4 -10z"/>
<path d="M6955 6661 c-6 -11 20 -33 28 -24 4 3 7 10 7 14 0 11 -29 19 -35 10z"/>
<path d="M7135 6593 c5 -10 8 -26 9 -35 0 -9 4 -14 9 -11 4 2 14 0 22 -7 10
-8 15 -8 21 2 4 7 4 10 -1 6 -13 -12 -34 11 -28 30 4 15 3 15 -6 2 -9 -13 -11
-13 -12 0 -1 8 -1 18 0 23 0 4 -4 7 -10 7 -7 0 -8 -7 -4 -17z"/>
<path d="M7261 6521 c-1 -19 40 -60 56 -54 7 3 13 10 13 15 0 6 -7 4 -16 -3
-15 -12 -16 -11 -10 11 6 19 5 21 -3 10 -8 -11 -11 -12 -11 -2 0 7 -4 11 -9 7
-5 -3 -12 3 -14 12 -3 10 -5 12 -6 4z"/>
<path d="M7346 6462 c5 -4 12 -11 15 -15 3 -5 9 -2 12 5 3 9 -3 14 -15 15 -11
1 -16 -1 -12 -5z"/>
<path d="M1098 6453 c10 -4 10 -8 1 -19 -6 -8 -8 -14 -4 -14 4 0 2 -7 -5 -15
-7 -8 -9 -15 -4 -15 5 0 2 -5 -6 -10 -8 -5 -10 -10 -4 -10 6 0 17 7 24 15 7 8
9 15 5 15 -4 0 -2 7 5 15 7 8 9 15 5 15 -4 0 -3 6 3 13 8 10 6 13 -11 14 -12
0 -16 -1 -9 -4z"/>
<path d="M7396 6447 c3 -10 9 -15 12 -12 3 3 0 11 -7 18 -10 9 -11 8 -5 -6z"/>
<path d="M7474 6399 c0 -10 4 -19 8 -19 4 0 8 6 8 14 0 8 -4 17 -8 20 -4 2 -8
-4 -8 -15z"/>
<path d="M7560 6322 c0 -5 7 -9 15 -9 8 0 15 4 15 9 0 4 -7 8 -15 8 -8 0 -15
-4 -15 -8z"/>
<path d="M7651 6314 c0 -11 3 -14 6 -6 3 7 2 16 -1 19 -3 4 -6 -2 -5 -13z"/>
<path d="M7662 6279 c2 -7 10 -15 17 -17 8 -3 12 1 9 9 -2 7 -10 15 -17 17 -8
3 -12 -1 -9 -9z"/>
<path d="M7754 6228 c0 -17 2 -17 12 -4 6 9 13 15 15 13 2 -1 3 0 1 2 -8 14
-28 6 -28 -11z"/>
<path d="M1036 6207 c3 -10 9 -15 12 -12 3 3 0 11 -7 18 -10 9 -11 8 -5 -6z"/>
<path d="M7900 6180 c-8 -5 -12 -11 -10 -14 3 -2 14 2 24 10 22 15 10 19 -14
4z"/>
<path d="M7956 6122 c-3 -5 1 -9 9 -9 8 0 15 4 15 9 0 4 -4 8 -9 8 -6 0 -12
-4 -15 -8z"/>
<path d="M1046 6085 c-13 -10 -22 -11 -26 -5 -4 7 -12 4 -21 -6 -10 -13 -10
-16 -1 -10 7 4 20 2 30 -5 9 -7 14 -10 10 -5 -4 5 3 17 15 27 26 22 20 25 -7
4z"/>
<path d="M8028 6092 c-10 -2 -18 -8 -18 -13 0 -12 17 -12 25 1 3 5 12 7 20 3
8 -3 15 -3 15 0 0 8 -24 14 -42 9z"/>
<path d="M8275 5991 c-6 -11 13 -26 22 -17 4 3 1 6 -6 6 -7 0 -9 5 -6 10 3 6
4 10 1 10 -3 0 -7 -4 -11 -9z"/>
<path d="M8336 5947 c3 -10 9 -15 12 -12 3 3 0 11 -7 18 -10 9 -11 8 -5 -6z"/>
<path d="M8426 5898 c3 -5 10 -6 15 -3 13 9 11 12 -6 12 -8 0 -12 -4 -9 -9z"/>
<path d="M8491 5844 c-1 -25 20 -37 40 -22 11 8 10 9 -4 4 -12 -4 -21 1 -27
17 -9 22 -9 22 -9 1z"/>
<path d="M978 5831 c4 -10 7 -11 10 -3 2 7 8 10 12 7 5 -3 11 -2 14 3 2 4 -6
8 -19 8 -16 0 -21 -4 -17 -15z"/>
<path d="M8610 5820 c-9 -6 -10 -10 -3 -10 6 0 15 5 18 10 8 12 4 12 -15 0z"/>
<path d="M8618 5788 c5 -5 16 -8 23 -6 8 3 3 7 -10 11 -17 4 -21 3 -13 -5z"/>
<path d="M8637 5764 c-4 -7 8 -23 31 -40 20 -15 32 -22 26 -14 -6 8 -10 23 -9
32 3 14 0 16 -15 8 -15 -8 -19 -6 -22 8 -2 11 -6 13 -11 6z"/>
<path d="M973 5735 c0 -8 4 -12 9 -9 5 3 6 10 3 15 -9 13 -12 11 -12 -6z"/>
<path d="M985 5680 c-3 -6 1 -7 9 -4 18 7 21 14 7 14 -6 0 -13 -4 -16 -10z"/>
<path d="M8977 5599 c7 -7 15 -10 18 -7 3 3 -2 9 -12 12 -14 6 -15 5 -6 -5z"/>
<path d="M9014 5598 c-4 -7 -4 -10 1 -6 4 4 15 2 24 -5 14 -11 14 -10 2 6 -16
20 -18 21 -27 5z"/>
<path d="M9046 5538 c3 -5 10 -6 15 -3 13 9 11 12 -6 12 -8 0 -12 -4 -9 -9z"/>
<path d="M980 5510 c-8 -5 -12 -12 -9 -15 4 -3 12 1 19 10 14 17 11 19 -10 5z"/>
<path d="M975 5340 c-3 -5 -2 -10 4 -10 5 0 13 5 16 10 3 6 2 10 -4 10 -5 0
-13 -4 -16 -10z"/>
<path d="M9271 5331 c-7 -11 -7 -22 -2 -25 15 -10 41 5 41 23 -1 14 -2 14 -11
-1 -5 -10 -15 -18 -21 -18 -7 0 -6 6 2 15 7 9 10 18 7 21 -3 3 -10 -3 -16 -15z"/>
<path d="M9376 5244 c1 -6 -2 -16 -7 -21 -5 -5 -3 -17 7 -29 12 -15 15 -16 10
-2 -3 10 2 18 12 21 15 4 14 5 -2 6 -16 1 -17 3 -5 18 8 9 9 14 2 10 -6 -4
-13 -4 -16 0 -2 5 -3 3 -1 -3z"/>
<path d="M980 5190 c-8 -5 -12 -12 -9 -15 4 -3 12 1 19 10 14 17 11 19 -10 5z"/>
<path d="M9456 5138 c3 -5 10 -6 15 -3 13 9 11 12 -6 12 -8 0 -12 -4 -9 -9z"/>
<path d="M9550 5040 c0 -5 5 -10 11 -10 5 0 7 5 4 10 -3 6 -8 10 -11 10 -2 0
-4 -4 -4 -10z"/>
<path d="M9526 4983 c-3 -4 -6 -11 -6 -17 0 -6 4 -6 11 1 6 6 18 9 25 6 8 -3
14 -1 14 4 0 10 -35 15 -44 6z"/>
<path d="M9578 4957 c-3 -15 -2 -30 3 -32 12 -8 16 8 9 35 l-6 25 -6 -28z"/>
<path d="M9660 4816 c0 -2 7 -6 15 -10 8 -3 15 -1 15 4 0 6 -7 10 -15 10 -8 0
-15 -2 -15 -4z"/>
<path d="M1003 4733 c-3 -10 -8 -21 -10 -25 -2 -4 2 -10 9 -14 7 -4 10 -4 6 0
-4 5 -3 19 2 32 5 13 7 24 4 24 -2 0 -7 -8 -11 -17z"/>
<path d="M9700 4695 c7 -8 9 -15 5 -15 -4 0 -2 -6 4 -14 9 -11 9 -15 -1 -19
-8 -3 -8 -6 -2 -6 6 -1 17 6 24 15 11 12 11 15 0 12 -8 -2 -15 3 -16 10 -1 6
-2 17 -3 22 0 6 -6 10 -12 10 -8 0 -8 -5 1 -15z"/>
<path d="M1049 4688 c-8 -7 -13 -12 -10 -11 2 1 12 -8 23 -20 l19 -22 -11 23
c-6 12 -8 27 -5 32 8 14 2 12 -16 -2z"/>
<path d="M996 4658 c3 -5 10 -6 15 -3 13 9 11 12 -6 12 -8 0 -12 -4 -9 -9z"/>
<path d="M1041 4643 c7 -12 15 -20 18 -17 3 2 -3 12 -13 22 -17 16 -18 16 -5
-5z"/>
<path d="M9708 4623 c7 -3 16 -2 19 1 4 3 -2 6 -13 5 -11 0 -14 -3 -6 -6z"/>
<path d="M9705 4600 c3 -5 10 -10 16 -10 5 0 9 5 9 10 0 6 -7 10 -16 10 -8 0
-12 -4 -9 -10z"/>
<path d="M9727 4576 c-15 -12 -16 -15 -2 -26 11 -9 12 -16 5 -25 -15 -18 30
-58 50 -44 13 9 12 10 -2 5 -10 -3 -20 -1 -23 4 -4 6 -2 10 3 10 5 0 10 12 10
26 0 17 -3 22 -9 13 -4 -7 -5 -17 -2 -23 3 -5 1 -6 -5 -2 -6 4 -9 13 -5 21 3
8 0 15 -6 15 -6 0 -11 4 -11 10 0 5 6 8 13 6 6 -1 9 -1 4 1 -4 3 -5 9 -1 14 7
12 2 11 -19 -5z"/>
<path d="M9740 4450 c-13 -9 -13 -11 0 -20 8 -5 11 -10 6 -10 -6 0 -5 -5 2
-12 8 -8 15 -8 26 1 12 10 13 16 3 32 -14 22 -16 22 -37 9z m33 -32 c-8 -14
-19 -8 -20 12 -1 16 1 17 12 7 7 -6 11 -15 8 -19z"/>
<path d="M9820 4420 c-9 -6 -10 -10 -3 -10 6 0 15 5 18 10 8 12 4 12 -15 0z"/>
<path d="M1097 4404 c-3 -4 -1 -16 5 -27 9 -17 8 -19 -8 -13 -14 5 -16 4 -8
-4 9 -9 18 -9 35 1 l23 12 -23 8 c-12 5 -19 13 -16 19 7 11 2 14 -8 4z"/>
<path d="M9794 4339 c-3 -6 -2 -15 3 -20 5 -5 9 -1 9 11 0 23 -2 24 -12 9z"/>
<path d="M1096 4307 c3 -10 9 -15 12 -12 3 3 0 11 -7 18 -10 9 -11 8 -5 -6z"/>
<path d="M9786 4282 c-2 -4 4 -8 14 -8 10 0 16 4 14 8 -3 4 -9 8 -14 8 -5 0
-11 -4 -14 -8z"/>
<path d="M9720 4250 c0 -5 5 -12 10 -15 6 -4 7 -12 3 -18 -13 -21 -11 -36 4
-30 13 5 13 3 2 -15 -10 -15 -16 -18 -21 -9 -6 9 -8 9 -8 0 0 -17 14 -23 30
-12 8 5 11 9 6 9 -5 0 1 12 15 27 13 15 16 21 7 14 -11 -8 -18 -9 -18 -3 0 6
5 14 10 17 16 10 11 21 -15 33 -14 6 -25 7 -25 2z m34 -19 c3 -5 -2 -15 -12
-22 -15 -12 -16 -12 -5 2 7 9 10 19 6 22 -3 4 -4 7 0 7 3 0 8 -4 11 -9z"/>
<path d="M9781 4244 c0 -11 3 -14 6 -6 3 7 2 16 -1 19 -3 4 -6 -2 -5 -13z"/>
<path d="M1159 4218 c-8 -16 -3 -51 7 -55 7 -2 10 -11 7 -19 -3 -8 0 -14 7
-14 9 0 9 -4 -1 -17 -13 -16 -12 -17 3 -5 14 11 16 29 8 52 -1 3 -2 8 -1 12 0
4 -7 4 -17 1 -15 -6 -16 -5 -2 12 9 11 10 16 3 11 -7 -4 -13 -3 -13 3 0 5 6
12 13 14 10 4 10 6 0 6 -7 1 -14 0 -14 -1z"/>
<path d="M9730 4119 c0 -5 5 -7 10 -4 6 3 10 8 10 11 0 2 -4 4 -10 4 -5 0 -10
-5 -10 -11z"/>
<path d="M1170 4060 c0 -5 5 -10 11 -10 5 0 7 5 4 10 -3 6 -8 10 -11 10 -2 0
-4 -4 -4 -10z"/>
<path d="M9696 3982 c-3 -5 1 -9 9 -9 8 0 12 4 9 9 -3 4 -7 8 -9 8 -2 0 -6 -4
-9 -8z"/>
<path d="M9634 3965 c-14 -10 -14 -13 3 -25 10 -8 15 -11 11 -6 -4 5 2 16 14
26 18 14 18 17 4 17 -9 0 -24 -5 -32 -12z"/>
<path d="M9673 3935 c0 -8 4 -12 9 -9 5 3 6 10 3 15 -9 13 -12 11 -12 -6z"/>
<path d="M9597 3899 c-9 -6 -15 -14 -12 -19 3 -5 -4 -15 -15 -23 -17 -12 -18
-16 -5 -33 13 -18 14 -18 9 6 -4 17 -3 21 4 12 7 -11 11 -10 17 5 10 21 12 29
14 44 0 5 6 7 13 3 7 -4 8 -3 4 4 -8 14 -6 14 -29 1z"/>
<path d="M9475 3730 c-10 -11 -23 -17 -29 -13 -6 3 -6 0 1 -7 16 -18 43 -22
40 -7 -1 7 4 11 12 9 11 -2 12 0 3 11 -7 8 -9 17 -5 20 3 4 4 7 1 7 -3 0 -13
-9 -23 -20z m15 -4 c0 -2 -8 -10 -17 -17 -16 -13 -17 -12 -4 4 13 16 21 21 21
13z"/>
<path d="M1306 3723 c-6 -14 -5 -15 5 -6 7 7 10 15 7 18 -3 3 -9 -2 -12 -12z"/>
<path d="M1411 3564 c0 -11 3 -14 6 -6 3 7 2 16 -1 19 -3 4 -6 -2 -5 -13z"/>
<path d="M9270 3562 c0 -5 7 -9 15 -9 8 0 12 4 9 9 -3 4 -9 8 -15 8 -5 0 -9
-4 -9 -8z"/>
<path d="M9206 3525 c-17 -13 -34 -21 -39 -18 -11 7 -28 -17 -21 -29 10 -15
23 -8 17 10 -5 13 -3 14 7 5 7 -6 19 -9 27 -6 12 5 12 7 1 14 -10 7 -9 9 5 9
9 0 17 5 17 11 0 5 4 8 9 5 11 -7 9 -25 -4 -46 -7 -13 -6 -13 7 -2 14 11 16
30 8 52 -1 3 -2 8 -1 13 1 10 -1 9 -33 -18z"/>
<path d="M1433 3515 c0 -7 6 -11 14 -8 7 3 13 6 13 8 0 2 -6 5 -13 8 -8 3 -14
-1 -14 -8z"/>
<path d="M1470 3502 c0 -4 5 -13 12 -20 9 -9 9 -12 -1 -12 -8 0 -2 -9 12 -20
15 -12 24 -28 22 -39 -2 -10 3 -18 11 -18 10 0 11 4 3 13 -7 8 -7 14 1 19 8 5
4 15 -11 31 -12 13 -19 24 -15 24 5 0 3 7 -4 15 -13 16 -30 20 -30 7z m45 -52
c10 -11 16 -20 13 -20 -3 0 -13 9 -23 20 -10 11 -16 20 -13 20 3 0 13 -9 23
-20z"/>
<path d="M9114 3415 c-4 -8 -11 -12 -17 -8 -6 3 -7 1 -3 -5 10 -16 14 -15 26
8 6 11 8 20 5 20 -3 0 -8 -7 -11 -15z"/>
<path d="M9070 3401 c0 -6 4 -13 10 -16 6 -3 7 1 4 9 -7 18 -14 21 -14 7z"/>
<path d="M1595 3290 c-3 -6 1 -7 9 -4 18 7 21 14 7 14 -6 0 -13 -4 -16 -10z"/>
<path d="M1672 3214 c10 -10 20 -16 22 -13 3 3 -5 11 -17 18 -21 13 -21 12 -5
-5z"/>
<path d="M8713 3106 c-2 -19 -1 -19 8 -3 6 9 14 15 20 12 5 -4 9 -2 9 4 0 20
-36 7 -37 -13z"/>
<path d="M1754 3109 c-3 -6 -1 -16 6 -22 10 -9 11 -9 5 2 -4 8 -2 17 6 22 9 6
10 9 2 9 -6 0 -15 -5 -19 -11z"/>
<path d="M1781 3084 c0 -11 3 -14 6 -6 3 7 2 16 -1 19 -3 4 -6 -2 -5 -13z"/>
<path d="M8626 3063 c-6 -14 -5 -15 5 -6 7 7 10 15 7 18 -3 3 -9 -2 -12 -12z"/>
<path d="M8590 3020 c0 -5 5 -10 11 -10 5 0 7 5 4 10 -3 6 -8 10 -11 10 -2 0
-4 -4 -4 -10z"/>
<path d="M8530 2979 c0 -5 5 -7 10 -4 6 3 10 8 10 11 0 2 -4 4 -10 4 -5 0 -10
-5 -10 -11z"/>
<path d="M8470 2966 c0 -2 7 -7 16 -10 8 -3 12 -2 9 4 -6 10 -25 14 -25 6z"/>
<path d="M2016 2915 c-9 -26 -7 -32 5 -12 6 10 9 21 6 23 -2 3 -7 -2 -11 -11z"/>
<path d="M8254 2878 c-5 -7 -3 -8 6 -3 10 6 12 4 7 -8 -4 -11 -2 -14 9 -10 11
4 12 9 3 19 -14 17 -16 17 -25 2z"/>
<path d="M8347 2879 c7 -7 15 -10 18 -7 3 3 -2 9 -12 12 -14 6 -15 5 -6 -5z"/>
<path d="M8187 2845 c6 -11 9 -28 8 -38 -2 -9 1 -15 6 -11 5 3 7 9 4 14 -3 4
-1 10 3 12 5 1 0 12 -11 23 l-20 20 10 -20z"/>
<path d="M2090 2820 c0 -5 5 -10 11 -10 5 0 7 5 4 10 -3 6 -8 10 -11 10 -2 0
-4 -4 -4 -10z"/>
<path d="M8255 2821 c-3 -5 -2 -12 3 -15 5 -3 9 1 9 9 0 17 -3 19 -12 6z"/>
<path d="M2134 2804 c-18 -14 -18 -15 4 -4 12 6 22 13 22 15 0 8 -5 6 -26 -11z"/>
<path d="M2193 2793 c0 -12 4 -20 8 -17 4 2 12 -4 18 -13 7 -13 10 -14 11 -4
0 11 4 10 19 -3 10 -10 22 -13 25 -8 3 5 -3 17 -14 27 -11 10 -20 14 -20 9 0
-5 -7 0 -15 10 -11 14 -15 16 -15 5 0 -12 -2 -12 -10 1 -7 12 -9 10 -7 -7z
m68 -30 c13 -16 12 -17 -3 -4 -17 13 -22 21 -14 21 2 0 10 -8 17 -17z"/>
<path d="M2155 2790 c-3 -6 1 -7 9 -4 18 7 21 14 7 14 -6 0 -13 -4 -16 -10z"/>
<path d="M2234 2729 c-3 -6 -2 -15 3 -20 5 -5 9 -1 9 11 0 23 -2 24 -12 9z"/>
<path d="M7951 2707 c-8 -10 -7 -14 2 -14 8 0 14 6 14 14 0 7 -1 13 -2 13 -2
0 -8 -6 -14 -13z"/>
<path d="M7820 2701 c-8 -6 -17 -8 -20 -6 -4 2 -7 -2 -7 -10 0 -8 4 -12 8 -9
4 2 9 1 12 -3 2 -5 2 -2 0 6 -2 8 2 11 12 7 9 -3 14 -2 10 3 -3 5 1 12 7 14 7
3 9 6 3 6 -5 0 -17 -3 -25 -8z"/>
<path d="M2350 2681 c0 -6 4 -13 10 -16 6 -3 7 1 4 9 -7 18 -14 21 -14 7z"/>
<path d="M2419 2674 c-10 -13 -10 -17 2 -25 12 -7 12 -9 0 -9 -8 0 -12 -3 -8
-6 3 -3 15 0 25 8 17 11 18 16 7 31 -11 16 -14 16 -26 1z m21 -14 c0 -5 -2
-10 -4 -10 -3 0 -8 5 -11 10 -3 6 -1 10 4 10 6 0 11 -4 11 -10z"/>
<path d="M7855 2680 c3 -5 8 -10 11 -10 2 0 4 5 4 10 0 6 -5 10 -11 10 -5 0
-7 -4 -4 -10z"/>
<path d="M7890 2679 c0 -5 5 -7 10 -4 6 3 10 8 10 11 0 2 -4 4 -10 4 -5 0 -10
-5 -10 -11z"/>
<path d="M2466 2602 c-3 -5 1 -9 9 -9 8 0 12 4 9 9 -3 4 -7 8 -9 8 -2 0 -6 -4
-9 -8z"/>
<path d="M2505 2600 c-2 -3 5 -7 16 -7 10 -1 19 2 19 6 0 9 -29 10 -35 1z"/>
<path d="M2553 2592 c0 -12 5 -22 9 -22 11 0 10 12 -2 30 -7 12 -9 10 -7 -8z"/>
<path d="M7411 2581 c-8 -13 -8 -22 -1 -26 6 -4 7 -12 4 -18 -4 -7 -3 -8 2 -4
5 5 10 13 10 18 1 5 2 15 3 22 1 7 7 5 16 -7 13 -18 14 -18 12 2 0 12 -3 19
-6 17 -2 -3 -10 0 -17 6 -9 8 -15 5 -23 -10z"/>
<path d="M7590 2590 c-9 -6 -10 -10 -3 -10 6 0 15 5 18 10 8 12 4 12 -15 0z"/>
<path d="M7635 2591 c-3 -5 -2 -12 3 -15 5 -3 9 1 9 9 0 17 -3 19 -12 6z"/>
<path d="M2634 2569 c-3 -6 0 -17 8 -25 13 -13 16 -13 27 0 10 12 9 17 -8 25
-14 8 -22 8 -27 0z m28 -13 c7 4 8 2 4 -5 -9 -13 -26 -5 -25 12 0 9 2 8 6 -1
2 -6 10 -9 15 -6z"/>
<path d="M7316 2564 c-3 -8 5 -11 24 -8 15 3 31 0 35 -6 3 -5 12 -10 18 -10 8
0 8 3 -1 9 -8 4 -14 12 -15 17 -3 13 -56 11 -61 -2z"/>
<path d="M2610 2540 c0 -5 5 -10 11 -10 5 0 7 5 4 10 -3 6 -8 10 -11 10 -2 0
-4 -4 -4 -10z"/>
<path d="M2681 2531 c-10 -6 -9 -10 3 -14 8 -3 18 -2 21 3 8 13 -9 20 -24 11z"/>
<path d="M7220 2528 c0 -4 0 -10 0 -13 0 -3 3 -5 6 -4 4 0 11 -5 16 -13 7 -9
8 -7 4 7 -5 18 -5 18 7 3 12 -15 14 -15 25 3 7 10 9 19 5 18 -5 -1 -10 0 -13
1 -16 6 -50 5 -50 -2z"/>
<path d="M7120 2505 c-10 -12 -10 -15 0 -15 9 0 9 -4 -1 -17 -13 -16 -12 -17
3 -4 10 7 16 17 13 21 -3 5 -1 11 5 15 5 3 10 1 10 -4 0 -6 7 -11 15 -11 8 0
15 -5 15 -12 0 -6 3 -8 7 -4 7 7 -34 45 -48 46 -4 0 -12 -7 -19 -15z"/>
<path d="M7315 2500 c-3 -5 -1 -10 4 -10 6 0 11 5 11 10 0 6 -2 10 -4 10 -3 0
-8 -4 -11 -10z"/>
<path d="M2675 2480 c3 -5 8 -10 11 -10 2 0 4 5 4 10 0 6 -5 10 -11 10 -5 0
-7 -4 -4 -10z"/>
<path d="M2856 2475 c-3 -8 -1 -15 4 -15 6 0 10 7 10 15 0 8 -2 15 -4 15 -2 0
-6 -7 -10 -15z"/>
<path d="M2920 2476 c0 -2 8 -10 18 -17 15 -13 16 -12 3 4 -13 16 -21 21 -21
13z"/>
<path d="M2810 2461 c0 -6 4 -13 10 -16 6 -3 7 1 4 9 -7 18 -14 21 -14 7z"/>
<path d="M7006 2442 c-3 -5 1 -9 9 -9 8 0 15 4 15 9 0 4 -4 8 -9 8 -6 0 -12
-4 -15 -8z"/>
<path d="M2839 2413 c-13 -17 -13 -17 6 -3 11 8 22 16 24 17 2 2 0 3 -6 3 -6
0 -17 -8 -24 -17z"/>
<path d="M7004 2398 l-19 -23 23 19 c21 18 27 26 19 26 -2 0 -12 -10 -23 -22z"/>
<path d="M3174 2389 c-3 -6 3 -13 15 -16 12 -3 21 -9 21 -14 0 -5 5 -9 10 -9
13 0 -10 38 -27 44 -7 3 -15 1 -19 -5z"/>
<path d="M6771 2393 c-1 -17 11 -22 34 -12 19 9 19 9 -2 5 -12 -2 -24 1 -27 8
-3 8 -5 8 -5 -1z"/>
<path d="M6498 2379 c-19 -11 -24 -29 -8 -29 5 0 14 9 20 20 12 23 12 23 -12
9z"/>
<path d="M6935 2380 c-3 -5 -1 -10 4 -10 6 0 11 5 11 10 0 6 -2 10 -4 10 -3 0
-8 -4 -11 -10z"/>
<path d="M6596 2358 c3 -4 11 -5 19 -1 21 7 19 12 -4 10 -11 0 -18 -5 -15 -9z"/>
<path d="M6656 2358 c3 -4 11 -5 19 -1 21 7 19 12 -4 10 -11 0 -18 -5 -15 -9z"/>
<path d="M6297 2345 c-4 -8 -1 -17 5 -21 7 -4 6 -9 -3 -15 -9 -6 -10 -9 -2 -9
6 0 19 7 28 16 12 12 13 19 4 30 -15 18 -25 18 -32 -1z m27 -16 c-3 -5 -10 -7
-15 -3 -5 3 -7 10 -3 15 3 5 10 7 15 3 5 -3 7 -10 3 -15z"/>
<path d="M3176 2342 c-3 -4 4 -9 15 -9 23 -2 25 3 4 10 -8 4 -16 3 -19 -1z"/>
<path d="M3236 2326 c10 -8 21 -12 24 -10 5 6 -21 24 -34 24 -6 0 -1 -6 10
-14z"/>
<path d="M3307 2333 c-10 -9 -9 -23 1 -23 5 0 9 7 9 15 0 17 -1 18 -10 8z"/>
<path d="M6133 2317 c-2 -4 -9 -5 -14 -1 -6 3 -5 -3 3 -15 7 -12 14 -17 16
-11 2 6 9 7 14 4 6 -4 8 -2 5 3 -4 6 0 13 8 16 10 4 12 1 8 -10 -4 -11 -2 -14
5 -9 22 13 13 34 -14 32 -14 0 -28 -4 -31 -9z"/>
<path d="M6436 2322 c-3 -5 1 -9 9 -9 8 0 12 4 9 9 -3 4 -7 8 -9 8 -2 0 -6 -4
-9 -8z"/>
<path d="M3275 2300 c3 -5 8 -10 11 -10 2 0 4 5 4 10 0 6 -5 10 -11 10 -5 0
-7 -4 -4 -10z"/>
<path d="M3441 2296 c-9 -11 -9 -16 1 -22 7 -4 10 -4 6 1 -4 4 -3 14 3 22 6 7
9 13 6 13 -2 0 -10 -6 -16 -14z"/>
<path d="M5984 2302 c-9 -5 -8 -10 1 -19 11 -10 13 -9 12 7 -1 11 -1 20 -2 20
0 0 -5 -4 -11 -8z"/>
<path d="M6355 2300 c-3 -5 -1 -10 4 -10 6 0 11 5 11 10 0 6 -2 10 -4 10 -3 0
-8 -4 -11 -10z"/>
<path d="M6036 2285 c4 -8 8 -15 10 -15 2 0 4 7 4 15 0 8 -4 15 -10 15 -5 0
-7 -7 -4 -15z"/>
<path d="M3825 2260 c-6 -9 1 -14 18 -11 4 0 7 -3 7 -9 0 -5 -4 -10 -10 -10
-5 0 -10 -4 -10 -10 0 -18 18 -10 25 10 4 11 11 18 16 14 5 -3 6 -10 3 -16 -5
-7 -2 -8 6 -3 10 6 8 12 -9 27 -26 20 -37 22 -46 8z"/>
<path d="M3656 2222 c-3 -5 1 -9 9 -9 8 0 12 4 9 9 -3 4 -7 8 -9 8 -2 0 -6 -4
-9 -8z"/>
<path d="M3753 2218 c1 -7 -4 -12 -11 -10 -8 1 -11 -2 -7 -8 5 -8 11 -8 21 1
7 6 11 15 8 20 -8 13 -14 11 -11 -3z"/>
<path d="M5395 2219 c-4 -6 -4 -13 -1 -16 3 -4 6 -1 6 6 0 7 5 9 12 5 7 -4 8
-3 4 4 -9 15 -13 15 -21 1z"/>
<path d="M5636 2218 c3 -4 11 -5 19 -1 21 7 19 12 -4 10 -11 0 -18 -5 -15 -9z"/>
<path d="M4071 2217 c2 -1 13 -9 24 -17 19 -14 19 -14 6 3 -7 9 -18 17 -24 17
-6 0 -8 -1 -6 -3z"/>
<path d="M3856 2194 c-5 -14 -4 -15 9 -4 17 14 19 20 6 20 -5 0 -12 -7 -15
-16z"/>
<path d="M4530 2195 c-7 -9 -11 -17 -9 -20 3 -2 10 5 17 15 14 24 10 26 -8 5z"/>
<path d="M4777 2203 c-10 -9 -9 -23 1 -23 5 0 9 7 9 15 0 17 -1 18 -10 8z"/>
<path d="M4846 2195 c-9 -26 -7 -32 5 -12 6 10 9 21 6 23 -2 3 -7 -2 -11 -11z"/>
<path d="M4903 2189 c-2 -23 3 -25 10 -4 4 8 3 16 -1 19 -4 3 -9 -4 -9 -15z"/>
<path d="M5276 2202 c-3 -5 1 -9 9 -9 8 0 15 4 15 9 0 4 -4 8 -9 8 -6 0 -12
-4 -15 -8z"/>
<path d="M5496 2193 c-6 -14 -5 -15 5 -6 7 7 10 15 7 18 -3 3 -9 -2 -12 -12z"/>
<path d="M5556 2198 c3 -5 10 -6 15 -3 13 9 11 12 -6 12 -8 0 -12 -4 -9 -9z"/>
<path d="M4497 2193 c-4 -3 -7 -11 -7 -17 0 -6 5 -5 12 2 6 6 9 14 7 17 -3 3
-9 2 -12 -2z"/>
<path d="M4877 2193 c-4 -3 -7 -11 -7 -17 0 -6 5 -5 12 2 6 6 9 14 7 17 -3 3
-9 2 -12 -2z"/>
<path d="M4995 2191 c-3 -5 -2 -12 3 -15 5 -3 9 1 9 9 0 17 -3 19 -12 6z"/>
<path d="M4075 2181 c-3 -5 -2 -12 3 -15 5 -3 9 1 9 9 0 17 -3 19 -12 6z"/>
<path d="M4156 2182 c-2 -4 4 -8 14 -8 10 0 16 4 14 8 -3 4 -9 8 -14 8 -5 0
-11 -4 -14 -8z"/>
</g>
</svg>
